<?xml version="1.0" encoding="utf-8"?>
<!-- Generator: Adobe Illustrator 27.5.0, SVG Export Plug-In . SVG Version: 6.00 Build 0)  -->
<svg version="1.1" id="Layer_1" xmlns="http://www.w3.org/2000/svg" xmlns:xlink="http://www.w3.org/1999/xlink" x="0px" y="0px"
	 viewBox="0 0 600 450" style="enable-background:new 0 0 600 450;" xml:space="preserve">
<rect style="fill:#FFFFFF;" width="600" height="450"/>
<g>
	<g id="1">
	<path style="opacity:0.7;fill:#FEEF38;" d="M63.618,26.007c-5.452-1.352-40.878,2.495-42.912,2.298
		c-2.148-0.44,0.446-11.029,2.309-12.705c1.138-1.024,1.056-0.284,10.89-1.018c0,0,14.821-1.079,33.038-2.342
		c0,0,29.274-1.633,69.573-2.013c3.168-0.03,0.656,0.595,4.387,0.385c7.951-0.449,25.246,0.397,31.268,0.035
		c4.83-0.29,5.87-0.31,10.476,0.24c3.174,0.379,29.769,1.323,32.722,0.747c0.715-0.139,1.243-0.05,1.232,0.181
		c0.208,0.024,17.642,1.392,17.717,1.599c0.119,0.24,0.646,0.39,1.157,0.267c0.939-0.227,19.789,0.484,20.04,1.182
		c0.72,2.002-2.572,9.9-4.882,11.728c-2.394,1.895-13.981-1.435-24.224-0.862c-47.759-2.954-47.393-2.204-55.372-1.813
		c-1.096-0.732-5.444,0.844-8.023-0.409c-1.082-0.526-8.844-0.726-10.582-0.279c-0.373,0.096-3.138,0.076-7.138,0.008
		c-2-0.034-4.309-0.076-6.782-0.12c-3.299-0.058-28.267-0.328-31.395,0.827C98.715,22.797,71.632,25.311,63.618,26.007z"/>
	</g>
	<g id="7">
		<path style="opacity:0.7;fill:#FEEF38;" d="M64.988,337.354c-4.922-1.337-37.892,1.916-40.013,1.624
			c-1.993-0.486,0.571-11.017,2.316-12.65c0.618-0.579,1.358-0.729,3.077-0.543c1.812,0.196,20.756-1.083,37.698-2.181
			c0,0,55.91-2.297,64.509-2.578c2.936-0.096,0.623,0.577,4.077,0.278c7.359-0.637,23.42-0.305,28.989-0.905
			c4.466-0.481,5.427-0.506,9.718-0.155c3.729,0.306,27.653-0.048,30.346-0.795c0.655-0.182,1.149-0.118,1.15,0.113
			c0,0,11.732,0.281,15.761,0.501c0.456,0.025,0.72,0.054,0.729,0.077c0.124,0.232,0.618,0.342,1.086,0.196
			c0.853-0.266,18.345-0.802,18.621-0.123c0.793,1.948-1.759,10.05-3.793,12.027c-2.118,2.059-13.279-0.503-22.575,0.672
			c-48.152-0.316-42.428-0.064-51.621,0.788c-1.046-0.689-5.038,1.045-7.485-0.132c-1.024-0.493-8.264-0.471-9.863,0.052
			c-1.17,0.383-38.106-0.001-42.201,1.595C97.953,334.153,68.72,337.057,64.988,337.354z"/>
		<path style="opacity:0.7;fill:#FEEF38;" d="M72.055,347.141c-4.81-1.46-40.028,0.167-42.595-0.269
			c-2.086-0.589,1.25-10.979,3.19-12.513c0.685-0.548,1.473-0.634,3.284-0.382c2.866,0.474,39.982-0.458,39.982-0.458
			c0.492,0.323,1.959-0.764,2.232-0.371c0.855,0.913,60.998-0.331,66.126-0.384c3.111-0.033,0.649,0.595,4.311,0.341
			c7.803-0.499,24.803-0.02,30.708-0.592c4.73-0.475,5.75-0.485,10.292-0.108c4.64,0.338,29.309-0.153,32.13-0.878
			c0.689-0.2,1.215-0.129,1.218,0.103c0.001,0.048,17.387,0.216,17.466,0.396c0.134,0.23,0.661,0.341,1.153,0.181
			c0.906-0.24,19.419-1.115,19.715-0.439c0.908,1.922-1.637,10.101-3.786,12.094c-2.197,2.125-14.28-0.261-23.995,1.024
			l-45.215,0.126l-9.692,0.797c-1.106-0.693-5.383,1.049-7.96-0.187c-1.09-0.491-8.786-0.565-10.491-0.044
			c-1.478,0.403-40.871-0.609-44.912,0.78C108.025,345.195,78.825,346.858,72.055,347.141z"/>
		<path style="opacity:0.7;fill:#FEEF38;" d="M68.793,356.617c-4.747-1.594-39.85-0.958-42.393-1.466
			c-2.06-0.648,1.553-10.94,3.528-12.418c0.697-0.529,1.484-0.592,3.28-0.29c2.84,0.555,39.813,0.666,39.813,0.666
			c0.48,0.336,1.971-0.709,2.233-0.308c0.825,0.937,60.73,1.384,65.836,1.474c3.097,0.055,0.629,0.613,4.282,0.462
			c7.782-0.279,24.69,0.677,30.585,0.271c4.722-0.341,5.737-0.323,10.248,0.181c4.61,0.468,29.18,0.671,32.008,0.026
			c0.691-0.181,1.214-0.094,1.209,0.137c-0.001,0.048,17.301,0.704,17.375,0.887c0.127,0.234,0.649,0.359,1.142,0.213
			c0.908-0.214,19.362-0.569,19.638,0.116c0.85,1.947-1.914,10.051-4.109,11.983c-2.246,2.063-14.207-0.662-23.914,0.349
			l-45.012-1.145l-9.671,0.524c-1.082-0.724-5.389,0.897-7.918-0.411c-1.072-0.521-8.73-0.811-10.441-0.339
			c-1.483,0.361-40.668-1.758-44.729-0.483C104.653,355.682,75.54,356.525,68.793,356.617z"/>
		<path style="opacity:0.7;fill:#FEEF38;" d="M60.646,365.956c-5.134-1.465-39.437,1.051-41.615,0.712
			c-2.059-0.53,0.881-11.002,2.737-12.596c0.657-0.565,1.43-0.699,3.212-0.474c1.774,0.223,19.237-0.52,39.232-1.315
			c0,0,51.595-0.863,67.105-0.958c3.054-0.019,0.631,0.594,4.229,0.387c7.665-0.441,24.345,0.328,30.15-0.116
			c4.654-0.355,5.654-0.357,10.103,0.117c3.781,0.402,28.73,0.748,31.556,0.082c0.686-0.162,1.197-0.085,1.191,0.147
			c0.459,0.041,2.201,0.131,2.665,0.156c0.181,0.01,14.389,0.745,14.453,0.915c0.122,0.236,0.632,0.361,1.123,0.228
			c0.895-0.242,19.085-0.24,19.352,0.447c0.767,1.973-2.12,9.991-4.291,11.905c-2.259,1.991-13.763-0.91-23.473-0.016
			c0,0-2.76-0.096-6.9-0.241c-41.508-1.451-38.402-0.98-46.754-0.461c-1.067-0.718-5.264,0.904-7.773-0.339
			c-1.051-0.521-8.574-0.699-10.249-0.217c-1.195,0.343-39.71-1.012-43.89,0.49C94.845,363.538,63.84,365.786,60.646,365.956z"/>
		<path style="opacity:0.7;fill:#FEEF38;" d="M60.065,374.461c-4.646-1.535-38.861-0.464-41.345-0.94
			c-2.016-0.622,1.385-10.958,3.292-12.461c0.673-0.537,1.44-0.61,3.194-0.33c2.775,0.519,38.82,0.172,38.82,0.172
			c0.473,0.331,1.914-0.733,2.173-0.336c0.816,0.927,59.22,0.631,64.199,0.658c3.02,0.016,0.621,0.605,4.18,0.409
			c7.583-0.376,24.078,0.371,29.819-0.109c4.599-0.4,5.589-0.395,9.992,0.054c4.499,0.411,28.455,0.309,31.204-0.372
			c0.671-0.189,1.182-0.109,1.181,0.122c0,0.048,16.875,0.49,16.949,0.672c0.126,0.233,0.637,0.351,1.116,0.199
			c0.883-0.225,18.868-0.809,19.146-0.128c0.852,1.936-1.747,10.074-3.865,12.033c-2.166,2.091-13.858-0.486-23.309,0.646
			l-43.895-0.586l-9.422,0.644c-1.063-0.71-5.243,0.964-7.724-0.312c-1.051-0.508-8.52-0.703-10.183-0.21
			c-1.441,0.379-39.667-1.253-43.611,0.072C95.014,373.081,66.642,374.285,60.065,374.461z"/>
		<path style="opacity:0.7;fill:#FEEF38;" d="M69.719,385.993c-4.837-1.473-36.054,1.263-38.013,0.974
			c-1.893-0.511,0.599-11.005,2.276-12.617c0.593-0.571,1.3-0.712,2.938-0.504c1.393,0.177,13.239-0.462,35.971-1.529
			c0.449,0.316,1.749-0.792,2.003-0.403c0.257,0.3,59.153-0.235,59.548-0.233c2.801,0.014,0.572,0.602,3.874,0.439
			c7.036-0.348,22.32,0.668,27.65,0.338c4.276-0.265,5.194-0.262,9.262,0.305c3.135,0.437,26.322,1.393,28.935,0.808
			c0.635-0.142,1.101-0.052,1.087,0.179c0.21,0.027,15.596,1.347,15.657,1.547c0.103,0.239,0.567,0.383,1.021,0.261
			c0.83-0.223,17.507,0.358,17.722,1.054c0.617,1.993-2.375,9.914-4.436,11.755c-1.078,0.963-4.236,0.626-8.235,0.116
			c-12.133-1.548-6.962-0.421-19.497-1.269c-35.997-2.436-35.972-1.82-42.691-1.497c-0.96-0.738-4.825,0.809-7.093-0.471
			c-0.949-0.536-7.814-0.81-9.359-0.376c-1.106,0.31-36.258-1.448-40.102,0.051C101.138,383.655,76.595,385.519,69.719,385.993z"/>
	</g>
	<g id="2">
		<path style="opacity:0.7;fill:#FEEF38;" d="M63.476,62.192c-6.523-1.09-45.171,5.608-46.171,5.585
			c-2.352-0.247-0.304-11.042,1.606-12.887c0.673-0.65,1.524-0.866,3.546-0.912c0,0,25.99-3.564,43.955-5.778
			c0.571,0.257,2.094-0.953,2.432-0.591c0.257,0.207,4.593-0.105,11.045-0.62c24.155-1.928,63.136-5.414,119.677-2.181
			c2.3,0.132,25.724,1.529,28.338,1.141c0.784-0.116,1.365,0.001,1.344,0.231c1.58,0.227,8.888,0.918,16.497,2.358
			c0.08,0.015,3.083,0.617,3.106,0.695c0.108,0.25,0.681,0.47,1.27,0.441c0.999-0.048,10.744,1.479,18.915,4.979
			c1.975,0.846,3.255,1.564,3.266,1.74c0.068,1.094-1.503,3.147-3.372,5.077c-7.577,7.825-6.101,3.261-21.82,0.116
			c-4.968-0.994-45.539-5.263-67.53-4.393c-1.184-0.724-5.893,0.785-8.681-0.472c-1.17-0.527-9.591-0.778-11.455-0.277
			c-1.003,0.27-43.18-0.53-49.028,1.576C101.66,57.002,72.273,60.956,63.476,62.192z"/>
		<path style="opacity:0.7;fill:#FEEF38;" d="M225.532,49.306c3.595,1.213,34.744,1.511,43.036,5.496
			c1.026,0.622-0.272,3.093-1.935,5.581c-5.293,7.916-4.892,5.671-9.773,4.696c-2.438-0.487-1.491-0.307-4.481-0.734
			c-9.145-1.305-21.682-1.525-30.951-1.523c-0.469-0.33-1.902,0.736-2.159,0.34c-0.395-0.487-15.123-0.572-30.434,0.063
			c-15.3,0.635-31.13,1.822-33.615,1.982c-3.018,0.195-0.662-0.546-4.205-0.1c-7.54,0.949-24.082,1.578-29.77,2.609
			c-4.554,0.826-5.54,0.891-9.978,0.894c-5.053,0.004-28.285,2.568-31.076,3.649c-0.652,0.252-1.165,0.24-1.19,0.01
			c-0.677,0.031-5.02,0.404-8.447,0.688c-0.117,0.01-8.455,0.731-8.512,0.629c-0.154-0.215-0.676-0.271-1.135-0.062
			c-0.858,0.304-18.662,3.158-19.029,2.54c-1.083-1.821,0.448-10.191,2.292-12.432c1.929-2.345,13.929-1.297,23.259-3.532
			c56.126-5.89,33.288-2.397,53.498-5.695c1.133,0.613,5.172-1.413,7.795-0.389c1.097,0.429,8.619-0.066,10.263-0.659
			c1.958-0.706,40.619-1.713,43.98-3.005C189.062,51.14,215.205,49.326,225.532,49.306z"/>
		<path style="opacity:0.7;fill:#FEEF38;" d="M81.956,75.042c-4.607-1.512-36.275,0.679-38.064,0.428
			c-1.876-0.527,0.624-10.961,2.385-12.604c0.604-0.564,1.321-0.697,2.968-0.471c1.423,0.195,10.756-0.141,36.05-0.999
			c0,0,56.028-0.47,61.595-0.423c2.805,0.024,0.574,0.602,3.881,0.421c7.043-0.386,22.362,0.572,27.71,0.208
			c4.288-0.292,5.21-0.26,9.295,0.281c2.935,0.389,27.016,1.43,29.131,0.971c0.644-0.14,1.114-0.037,1.097,0.196
			c0.339,0.051,15.786,1.806,15.872,2.139c0.092,0.245,0.556,0.409,1.029,0.32c1.044-0.196,11.3,0.983,15.714,2.41
			c1.816,0.587,3.005,1.081,3.021,1.262c0.155,1.746-4.015,7.15-5.093,8.457c-2.387,2.894-2.238,2.774-9.589,1.135
			c-10.207-2.275-10.247-1.282-14.509-1.768c-1.001-0.114-7.751-0.815-18.261-1.507c-21.568-1.419-21.047-1.024-28.825-0.632
			c-0.966-0.726-4.823,0.834-7.107-0.44c-0.952-0.531-7.833-0.781-9.382-0.32c-1.049,0.312-36.329-1.335-40.235,0.128
			C113.692,72.939,86.37,74.802,81.956,75.042z"/>
		<path style="opacity:0.7;fill:#FEEF38;" d="M218.358,67.162c3.254,1.417,30.801,1.01,33.013,1.614
			c1.582,0.671-1.523,10.914-3.071,12.372c-1.002,0.944-0.83,0.12-8.237-0.166c-8.181-0.316-18.483-0.337-24.941-0.264
			c-0.372-0.33-1.514,0.733-1.717,0.336c-0.16-0.227-3.162-0.412-7.639-0.48c-15.742-0.239-28.431,0.34-43.042,0.936
			c-2.383,0.097-0.514-0.568-3.315-0.247c-5.959,0.684-19.011,0.671-23.503,1.502c-3.595,0.665-4.372,0.657-7.874,0.515
			c-4.48-0.181-22.479,1.616-24.506,2.551c-0.512,0.236-0.917,0.204-0.939-0.027c-0.107,0.002-13.335,0.849-13.376,0.757
			c-0.125-0.22-0.538-0.293-0.898-0.099c-0.676,0.259-14.69,2.575-14.999,1.931c-0.888-1.85,0.144-10.148,1.565-12.316
			c1.496-2.282,11.256-0.887,18.419-2.806c43.993-3.821,27.105-1.391,42.435-3.812c0.893,0.645,4.101-1.23,6.179-0.099
			c0.862,0.469,6.826,0.268,8.134-0.287c1.48-0.629,31.816-0.171,34.816-1.483C188.885,68.448,202.359,67.781,218.358,67.162z"/>
	</g>
	<g id="3">
		<path style="opacity:0.7;fill:#FEEF38;" d="M49.512,118.514c-3.647-1.316-26.06,2.486-27.657,2.239
			c-1.424-0.448-0.44-10.983,0.665-12.643c0.391-0.588,0.901-0.752,2.116-0.599c1.068,0.134,8.444-0.756,26.271-2.752
			c0.35,0.299,1.229-0.852,1.441-0.473c0.16,0.221,2.749,0.108,6.599-0.122c4.32-0.258,16.083-1.118,21.885-1.474
			c8.564-0.525,5.337-0.424,15.138-0.89c2.053-0.098,0.447,0.578,2.858,0.282c5.139-0.632,16.38-0.249,20.271-0.808
			c3.124-0.449,3.796-0.48,6.798-0.091c2.395,0.311,19.326,0.172,21.237-0.474c0.459-0.186,0.806-0.103,0.802,0.129
			c0.204,0.022,11.471,0.627,11.521,0.825c0.081,0.234,0.423,0.356,0.755,0.214c0.601-0.258,12.854-0.471,13.023,0.215
			c0.483,1.956-1.589,10.019-3.057,11.949c-1.54,2.025-9.136-0.748-15.661,0.283c0,0-1.84-0.055-4.601-0.137
			c-26.946-0.804-26.026-0.255-31.166,0.385c-0.729-0.696-3.477,1.018-5.187-0.172c-0.711-0.494-5.723-0.487-6.836,0.013
			c-0.236,0.106-2.022,0.151-4.605,0.18c-2.583,0.029-5.965,0.042-9.398,0.143c-1.716,0.051-3.446,0.092-5.095,0.156
			c-1.649,0.064-3.215,0.171-4.608,0.28c-2.785,0.217-4.872,0.489-5.51,0.874C72.39,115.064,54.373,117.815,49.512,118.514z"/>
		<path style="opacity:0.7;fill:#FEEF38;" d="M63.65,121.211c-6.677-2.389-40.716-0.311-41.718-0.438
			c-2.056-0.482,0.157-10.876,2.246-12.665c0.685-0.587,1.513-0.726,3.423-0.588c0,0,20.702-0.206,40.527,0.266
			c0.479,0.346,2.007-0.67,2.263-0.265c0.204,0.24,4.142,0.518,9.998,0.877c5.854,0.36,55.271,3.453,56.271,3.526
			c3.113,0.229,0.595,0.632,4.276,0.737c8.926,0.255,24.864,2.41,30.712,2.45c4.769,0.033,5.778,0.199,10.275,1.022
			c4.585,0.839,29.235,3.322,32.127,2.947c0.714-0.093,1.227,0.028,1.2,0.258c0,0,10.368,1.444,16.576,2.551
			c0.478,0.085,0.753,0.149,0.76,0.173c0.101,0.247,0.611,0.433,1.122,0.338c0.935-0.172,19.474,1.754,19.673,2.463
			c0.574,2.042-3.213,9.71-5.609,11.385c-2.485,1.738-13.57-2.32-23.79-2.397c-4.924-0.687-23.854-3.074-44.756-5.332l-9.695-0.258
			c-1.025-0.802-5.429,0.462-7.877-0.998c-1.024-0.611-8.654-1.433-10.406-1.092c-1.41,0.274-39.793-4.337-44.68-3.107
			C99.065,121.185,69.78,121.21,63.65,121.211z"/>
		<path style="opacity:0.7;fill:#FEEF38;" d="M216.754,121.618c3.634,1.534,32.705,2.151,35.937,3.134
			c1.691,0.757-2.174,10.82-3.91,12.191c-0.62,0.49-1.284,0.53-2.753,0.115c-1.977-0.558-15.354-1.344-17.455-1.447
			c-13.522-0.661-11.112-0.456-15.741-0.548c-0.394-0.342-1.665,0.683-1.874,0.279c-0.168-0.227-3.42-0.523-8.282-0.717
			c-10.039-0.401-15.696-0.413-22.843-0.412c-9.89,0.002-22.922,0.304-23.992,0.324c-2.597,0.047-0.545-0.578-3.603-0.315
			c-6.506,0.56-20.72,0.271-25.641,0.994c-3.939,0.578-4.786,0.565-8.596,0.33c-4.485-0.277-24.541,0.999-26.814,1.87
			c-0.569,0.218-1.01,0.174-1.023-0.057c-0.139-0.002-14.57,0.409-14.62,0.292c-0.124-0.225-0.571-0.313-0.974-0.133
			c-0.745,0.258-16.164,1.967-16.46,1.311c-0.852-1.888,0.79-10.139,2.457-12.245c1.749-2.209,12.101-0.393,20.095-2.066
			c48.342-2.354,31.834-0.838,46.165-2.61c0.949,0.664,4.491-1.132,6.712,0.042c0.924,0.488,7.405,0.41,8.841-0.112
			c1.587-0.576,34.802,0.449,37.887-0.738C184.27,121.961,195.349,121.772,216.754,121.618z"/>
		<path style="opacity:0.7;fill:#FEEF38;" d="M92.439,140.401c-4.26-1.83-32.606-1.064-34.417-1.489
			c-1.684-0.629,1.168-10.945,2.786-12.449c0.572-0.532,1.223-0.629,2.697-0.318c1.212,0.255,16.013,0.468,17.247,0.49
			c7.889,0.139,15.486,0.336,15.486,0.336c0.385,0.345,1.639-0.672,1.843-0.267c0.341,0.507,25.064,1.834,25.674,1.87
			c8.114,0.485,19.948,1.218,28.276,1.848c2.534,0.192,0.474,0.635,3.474,0.678c6.393,0.091,20.152,2.01,24.997,1.96
			c3.887-0.039,4.711,0.046,8.36,0.802c3.723,0.771,23.776,2.607,26.126,2.125c0.583-0.12,0.998-0.011,0.974,0.22
			c0.525,0.096,6.496,0.911,7.027,0.986c0.129,0.018,7.029,0.975,7.058,1.102c0.082,0.242,0.495,0.403,0.911,0.293
			c0.762-0.154,15.82,0.805,15.989,1.504c0.484,2.005-2.524,9.85-4.474,11.638c-2.042,1.872-11.504-1.667-19.497-1.335
			c-42.66-4.897-34.776-4.1-44.42-4.17c-0.823-0.787-4.433,0.545-6.406-0.869c-0.823-0.59-7.036-1.287-8.464-0.921
			c-0.998,0.255-32.874-3.704-36.333-2.511C121.039,140.185,98.784,140.389,92.439,140.401z"/>
		<path style="opacity:0.7;fill:#FEEF38;" d="M205.715,137.724c2.592,0.922,18.269,1.243,21.008,1.329
			c1.948,0.061,17.796,0.52,19.494,0.946c1.934,0.725-2.03,10.866-3.923,12.271c-0.677,0.503-1.422,0.56-3.088,0.168
			c-2.115-0.497-17.594-0.93-19.734-0.988c-4.884-0.133-10.051-0.17-17.791-0.225c-0.454-0.334-1.863,0.72-2.11,0.321
			c-0.195-0.233-3.88-0.412-9.374-0.556c-16.621-0.438-41.654,0.221-52.875,0.478c-2.928,0.067-0.617-0.576-4.064-0.297
			c-7.337,0.593-23.349,0.47-28.885,1.241c-4.432,0.617-5.389,0.618-9.672,0.448c-2.31-0.092-8.482,0.258-10.773,0.389
			c-2.183,0.125-16.813,1.14-19.326,2.051c-0.636,0.23-1.128,0.207-1.147-0.024c-0.082,0.001-16.331,0.919-16.36,0.863
			c-0.145-0.219-0.647-0.283-1.093-0.087c-0.56,0.246-17.962,2.895-18.307,2.298c-1.057-1.832,0.343-10.169,2.143-12.394
			c0.936-1.157,4.325-1.502,8.629-1.764c16.554-1.008,6.65-0.907,20.766-1.932c35.332-2.564,26.191-0.908,45.377-3.16
			c1.071,0.66,5.057-1.156,7.561-0.044c1.04,0.462,8.34,0.359,9.956-0.172c0.346-0.114,2.947-0.192,6.709-0.233
			c3.761-0.04,8.684-0.053,13.683-0.075c9.997-0.044,20.294-0.118,22.215-0.78C170.918,138.89,197.477,137.777,205.715,137.724z"/>
	</g>
	<g id="4">
		<path style="opacity:0.7;fill:#FEEF38;" d="M65.218,195.342c-5.105-1.429-38.107,1.54-40.359,1.238
			c-2.007-0.502,0.666-11.011,2.443-12.631c0.629-0.574,1.377-0.719,3.112-0.519c1.612,0.186,16.631-0.666,38.091-1.797
			c0.477,0.311,1.847-0.81,2.118-0.424c0.468,0.494,17.921-0.204,51.257-0.879c6.078-0.123,10.58-0.189,11.802-0.204
			c2.967-0.036,0.617,0.591,4.11,0.365c7.444-0.481,23.65,0.218,29.287-0.238c4.52-0.366,5.492-0.376,9.815,0.09
			c2.208,0.238,9.194,0.351,15.966,0.393c6.772,0.043,13.339-0.013,14.69-0.339c0.667-0.161,1.163-0.084,1.157,0.148
			c0.622,0.058,7.666,0.432,8.289,0.47c0.127,0.008,8.294,0.499,8.338,0.619c0.117,0.236,0.613,0.364,1.09,0.23
			c0.87-0.243,18.542-0.193,18.798,0.495c0.734,1.974-2.116,9.985-4.232,11.893c-2.202,1.985-13.312-0.947-22.773-0.065
			c0,0-2.677-0.098-6.693-0.246c-39.818-1.463-37.874-0.907-45.358-0.406c-1.038-0.715-5.104,0.919-7.542-0.314
			c-1.021-0.516-8.314-0.645-9.944-0.177c-0.349,0.1-2.948,0.092-6.706,0.047c-11.682-0.141-9.341-0.199-21.088-0.129
			c-3.643,0.021-13.035,0.174-14.781,0.839C98.734,192.655,72.521,194.796,65.218,195.342z"/>
		<path style="opacity:0.7;fill:#FEEF38;" d="M86.959,205c-3.456-1.468-28.705,0.098-30.548-0.343
			c-1.499-0.593,0.845-10.977,2.229-12.507c0.488-0.547,1.054-0.631,2.354-0.376c2.058,0.479,28.671-0.389,28.671-0.389
			c0.354,0.324,1.401-0.761,1.599-0.367c0.617,0.915,43.743-0.225,47.42-0.27c2.231-0.027,0.468,0.596,3.093,0.348
			c5.594-0.485,17.787,0.023,22.019-0.539c3.39-0.467,4.121-0.475,7.38-0.09c3.329,0.346,21.018-0.102,23.038-0.822
			c0.493-0.199,0.871-0.126,0.874,0.105c0.001,0.048,12.47,0.246,12.527,0.427c0.097,0.231,0.476,0.342,0.828,0.183
			c0.648-0.238,13.921-1.082,14.136-0.405c0.66,1.924-1.126,10.098-2.658,12.087c-1.565,2.122-10.242-0.286-17.203,0.983
			l-32.425,0.049l-6.947,0.78c-0.797-0.695-3.856,1.04-5.709-0.201c-0.784-0.493-6.303-0.58-7.523-0.063
			c-1.058,0.4-29.313-0.68-32.205,0.703C112.745,203.116,91.813,204.729,86.959,205z"/>
		<path style="opacity:0.7;fill:#FEEF38;" d="M81.997,186.207c-2.957-1.435-25.003,0.086-26.739-0.385
			c-1.309-0.599,0.773-10.97,1.976-12.498c0.428-0.544,0.925-0.652,2.052-0.367c1.845,0.467,22.669-0.281,24.985-0.375
			c0.311,0.322,1.215-0.766,1.391-0.373c0.272,0.457,9.803,0.361,19.664,0.08c9.861-0.281,20.051-0.75,21.652-0.8
			c1.943-0.061,0.419,0.578,2.703,0.298c4.86-0.596,15.502-0.288,19.172-0.959c2.941-0.537,3.574-0.544,6.427-0.256
			c2.909,0.294,18.324-0.607,20.038-1.436c0.426-0.206,0.754-0.153,0.765,0.079c0,0,0.17,0.009,0.468,0.009
			c1.541-0.003,0.683-0.01,4.975-0.033c0.125-0.001,5.446-0.061,5.484,0.059c0.094,0.227,0.428,0.326,0.728,0.156
			c0.556-0.249,12.068-1.559,12.294-0.893c0.644,1.905-0.545,10.114-1.777,12.169c-1.298,2.166-8.967,0.079-15.002,1.567
			c0,0-7.09,0.267-14.18,0.503c-17.016,0.567-12.611,0.199-20.237,1.377c-0.716-0.676-3.327,1.1-5.001-0.08
			c-0.692-0.488-5.53-0.455-6.585,0.086c-0.458,0.205-6.875,0.17-13.489,0.234c-6.614,0.064-13.426,0.22-14.68,0.931
			C104.546,184.192,86.248,185.936,81.997,186.207z"/>
	</g>
	<g id="5">
		<path style="opacity:0.7;fill:#FEEF38;" d="M68.04,238.01c-5.226-1.318-40.091,2.11-42.326,1.829
			c-2.107-0.476,0.628-11.022,2.476-12.665c0.655-0.582,1.437-0.737,3.254-0.559c1.853,0.18,20.31-1.082,39.866-2.371
			c0,0,57.628-2.486,68.221-2.851c3.105-0.107,0.659,0.575,4.312,0.263c7.783-0.664,24.768-0.387,30.658-1.005
			c4.722-0.495,5.739-0.524,10.278-0.185c3.911,0.292,29.243-0.127,32.093-0.88c0.692-0.183,1.215-0.121,1.216,0.11
			c0.192,0.011,17.368,0.365,17.441,0.538c0.131,0.232,0.654,0.341,1.149,0.193c0.902-0.268,19.4-0.841,19.694-0.163
			c0.845,1.948-1.83,10.053-3.978,12.035c-1.12,1.034-4.658,0.922-9.141,0.688c-14.107-0.737-7.577,0.042-21.766,0.007
			c-43.84-0.108-36.232-0.068-47.583,0.96c-1.107-0.686-5.33,1.061-7.918-0.108c-1.084-0.489-8.743-0.444-10.434,0.086
			c-1.222,0.383-40.3,0.141-44.643,1.757C102.88,234.656,71.929,237.701,68.04,238.01z"/>
		<path style="opacity:0.7;fill:#FEEF38;" d="M77.428,247.791c-4.017-1.394-29.719,1.785-31.439,1.507
			c-1.587-0.486,0.094-11.001,1.427-12.632c0.472-0.578,1.055-0.728,2.42-0.542c1.234,0.168,12.429-0.745,29.8-2.051
			c0,0,25.478-1.288,51.038-1.765c2.324-0.043,0.486,0.59,3.222,0.357c5.829-0.496,18.525,0.182,22.94-0.275
			c3.543-0.367,4.304-0.38,7.688,0.087c2.658,0.367,21.833,0.681,24.018,0.081c0.523-0.174,0.913-0.082,0.904,0.15
			c0.349,0.042,1.674,0.136,2.026,0.162c0.197,0.014,10.932,0.772,10.983,0.963c0.087,0.236,0.473,0.367,0.85,0.233
			c0.685-0.243,14.536-0.137,14.719,0.553c0.522,1.971-1.921,9.977-3.614,11.871c-0.889,0.995-3.505,0.748-6.82,0.351
			c-10.226-1.223-5.694-0.218-16.155-0.736c-30.537-1.51-29.498-0.939-35.354-0.433c-0.807-0.715-3.975,0.924-5.878-0.308
			c-0.793-0.513-6.478-0.637-7.752-0.167c-1.011,0.373-30.012-0.714-33.181,0.863C103.468,244.939,83.226,247.194,77.428,247.791z"
			/>
	</g>
	<g id="6">
		<path style="opacity:0.7;fill:#FEEF38;" d="M65.546,279.809c-6.05-1.241-41.66,4.154-43.723,4.049
			c-2.213-0.343-0.007-11.038,1.833-12.799c0.65-0.622,1.456-0.827,3.362-0.765c1.943,0.064,23.014-2.611,41.497-4.357
			c0,0,28.384-2.669,71.233-3.74c3.245-0.081,0.681,0.587,4.501,0.324c8.143-0.562,25.876,0.107,32.043-0.276
			c9.45-0.587,1.384,0.07,28.199,0.898c1.803,0.056,14.406,0.422,16.077,0.091c0.732-0.145,1.275-0.042,1.262,0.189
			c0.232,0.027,18.064,1.521,18.147,1.754c0.12,0.241,0.66,0.403,1.183,0.279c0.967-0.229,20.274,0.756,20.522,1.459
			c0.712,2.012-2.759,9.861-5.14,11.655c-2.462,1.855-14.123-1.628-24.744-1.162c0,0-0.726-0.065-1.998-0.146
			c-45.972-2.916-45.339-2.233-54.58-1.743c-1.126-0.728-5.557,0.873-8.201-0.352c-1.11-0.515-9.045-0.641-10.816-0.182
			c-0.38,0.098-3.206,0.116-7.294,0.1c-4.188-0.016-35.046-0.154-38.994,1.394C100.851,275.512,74.174,278.794,65.546,279.809z"/>
		<path style="opacity:0.7;fill:#FEEF38;" d="M218.087,265.678c4.315,1.376,37.858,0.314,41.325,1.034
			c1.996,0.652-1.615,10.932-3.512,12.41c-0.676,0.526-1.436,0.61-3.161,0.283c-2.524-0.478-23.706-0.536-38.353-0.085
			c-0.473-0.32-1.876,0.774-2.14,0.383c-0.206-0.219-3.967-0.335-9.57-0.264c-19.898,0.252-34.673,1.257-53.838,2.551
			c-2.979,0.201-0.654-0.544-4.152-0.096c-7.444,0.953-23.767,1.571-29.373,2.64c-10.144,1.935-3.831-0.319-25.846,2.477
			c-6.766,0.859-13.301,1.837-14.598,2.383c-0.637,0.268-1.145,0.259-1.173,0.029c-0.098,0.006-16.651,1.658-16.7,1.573
			c-0.156-0.213-0.673-0.26-1.121-0.044c-0.844,0.292-18.331,3.522-18.715,2.899c-1.109-1.803,0.186-10.192,1.959-12.465
			c0.924-1.184,4.35-1.602,8.705-2.003c16.121-1.486,6.426-1.063,21.029-2.772c40.427-4.731,27.262-2.219,46.072-5.388
			c1.122,0.597,5.106-1.438,7.709-0.408c1.086,0.429,8.526-0.068,10.147-0.685c0.349-0.133,3.001-0.303,6.838-0.519
			c19.909-1.121,34.051-1.462,36.613-2.447C180.627,267.796,193.509,267.007,218.087,265.678z"/>
		<path style="opacity:0.7;fill:#FEEF38;" d="M69.149,293.965c-1.763-0.724-9.334-0.675-11.334-0.642
			c-6.581,0.108-4.279,0.057-10.892,0.332c-2.248,0.093-9.222,0.5-10.12,0.319c-1.608-0.556,0.599-10.985,2.052-12.557
			c0.514-0.556,1.121-0.684,2.519-0.435c1.169,0.208,15.079-0.229,16.222-0.261c7.415-0.206,14.557-0.338,14.557-0.338
			c0.376,0.328,1.512-0.745,1.72-0.349c0.327,0.457,12.057,0.537,24.189,0.724c4.608,0.071,25.654,0.556,26.638,0.589
			c2.389,0.08,0.469,0.615,3.291,0.526c6.012-0.188,19.016,1.147,23.572,0.906c3.656-0.194,4.437-0.158,7.89,0.467
			c2.989,0.541,22.406,1.764,24.656,1.202c0.547-0.137,0.941-0.041,0.922,0.19c0.188,0.03,13.27,1.499,13.313,1.684
			c0.081,0.24,0.471,0.383,0.863,0.269c0.711-0.208,14.93,0.446,15.095,1.144c0.468,1.991-2.314,9.895-4.125,11.722
			c-1.894,1.91-10.677-1.403-18.287-0.858c-37.673-3.406-33.517-2.876-41.744-2.59c-0.796-0.757-4.137,0.726-6.035-0.604
			c-0.791-0.554-6.637-0.977-7.969-0.566c-0.285,0.088-2.369-0.022-5.381-0.215c-3.012-0.192-6.954-0.472-10.961-0.669
			c-2.181-0.107-15.78-0.869-17.834-0.024C95.494,292.375,71.227,293.893,69.149,293.965z"/>
		<path style="opacity:0.7;fill:#FEEF38;" d="M206.005,285.91c0.923,1.484,8.321,0.902,9.167,1.902
			c0.314,0.666-3.082,11.37-3.374,12.045c-0.219,0.508-0.352,0.561-0.572,0.24c-0.54-0.79-5.423-0.692-6.508-0.641
			c-0.074-0.33-0.344,0.731-0.388,0.335c-0.058-0.517-2.896-0.51-3.416-0.5c-4.378,0.081-6.987,0.767-8.014,0.913
			c-0.539,0.077-0.193-0.565-0.804-0.261c-1.273,0.634-4.348,0.521-5.235,1.278c-0.708,0.604-0.864,0.633-1.741,0.42
			c-0.884-0.215-4.88,1.262-5.083,2.117c-0.04,0.223-0.147,0.181-0.227-0.036c-0.004-0.012-2.844,0.622-2.888,0.545
			c-0.116-0.202-0.24-0.273-0.25-0.099c-0.01,0.068-0.172,0.237-0.415,0.437c-0.447,0.369-1.969,1.65-2.293,1.169
			c-1.217-1.809-4.643-8.699-5.231-10.864c-0.568-2.096,2.955-1.102,4.409-2.94c2.634-0.912,6.396-2.103,9.123-2.596l1.786-1.146
			c0.371,0.625,0.869-1.206,1.664-0.081c0.319,0.451,1.89,0.288,2.145-0.272c0.057-0.107,0.616-0.183,1.428-0.257
			c0.812-0.075,1.876-0.14,2.955-0.208c2.154-0.135,4.367-0.292,4.734-1.013C198.213,287.241,201.463,286.547,206.005,285.91z"/>
	</g>
	<g id="8">
		<path style="opacity:0.7;fill:#FEEF38;" d="M77.379,415.273c-4.807-1.44-37.112,1.161-39.179,0.826
			c-1.942-0.525,0.749-11.003,2.486-12.601c0.615-0.566,1.342-0.702,3.021-0.482c2.027,0.266,28.901-1.061,36.937-1.428
			c0,0,54.124-1.141,63.186-1.25c2.876-0.035,0.598,0.59,3.985,0.364c7.215-0.482,22.927,0.19,28.39-0.29
			c4.381-0.385,5.322-0.391,9.514,0.053c3.598,0.381,27.058,0.551,29.716-0.137c0.646-0.167,1.127-0.093,1.122,0.139
			c0.181,0.016,16.063,0.769,16.125,0.94c0.116,0.235,0.597,0.356,1.059,0.22c0.84-0.247,17.972-0.395,18.226,0.29
			c0.73,1.965-1.955,10.009-3.99,11.939c-1.064,1.009-4.331,0.815-8.471,0.477c-12.999-1.059-7.03-0.132-20.127-0.494
			c-40.01-1.106-33.241-0.925-44.021-0.142c-1.009-0.711-4.95,0.938-7.32-0.292c-0.991-0.514-8.075-0.647-9.651-0.157
			c-1.143,0.356-37.273-0.801-41.319,0.713C109.662,412.74,80.897,415.06,77.379,415.273z"/>
		<path style="opacity:0.7;fill:#FEEF38;" d="M68.83,424.167c-5.479-1.436-41.154,2.515-43.185,2.326
			c-2.163-0.431,0.446-11.034,2.318-12.718c0.662-0.596,1.462-0.77,3.329-0.629c1.95,0.147,15.036-1.073,40.933-2.755
			c0,0,37.456-1.778,70.314-0.638c3.205,0.111,0.638,0.592,4.42,0.559c9.633-0.084,25.166,1.785,31.358,1.551
			c9.677-0.365,6.694,0.57,16.869,0.666c8.021,0.075,23.573-1.005,25.752-1.657c0.707-0.211,1.249-0.171,1.26,0.061
			c0.443,0.007,18.048-0.203,18.236,0.236c0.135,0.234,0.686,0.355,1.21,0.211c2.743-0.551,20.744,0.749,21.049,1.901
			c0.275,1.036-0.674,3.422-1.96,5.76c-3.513,6.385-4.824,6.07-7.321,5.842c-3.263-0.298-5.633-0.64-5.633-0.64
			c-9.828-1.232-12.493-0.318-16.491-0.269c-1.23,0.015-2.999,0.055-5.128,0.118c-55.334,1.632-19.642,0.391-49.418,0.995
			c-1.095-0.76-5.592,0.637-8.155-0.754c-1.079-0.586-8.9-1.197-10.662-0.831c-0.996,0.207-39.981-2.83-45.403-0.954
			C103.906,421.14,77.451,423.412,68.83,424.167z"/>
		<path style="opacity:0.7;fill:#FEEF38;" d="M73.47,436.059c-3.991-1.587-35.325-1.619-38.07-2.273
			c-1.828-0.696,1.756-10.892,3.56-12.328c0.641-0.51,1.35-0.579,2.942-0.212c2.916,0.673,32.525,1.296,35.585,1.351
			c0.424,0.341,1.774-0.69,2.001-0.287c0.839,1.101,46.845,1.417,47.846,1.422c5.677,0.026,9.881,0.021,11.023,0.026
			c2.77,0.013,0.567,0.593,3.834,0.407c6.954-0.396,22.092,0.303,27.355-0.26c4.215-0.451,5.118-0.415,9.166-0.057
			c4.687,0.414,26.13-0.16,28.608-0.959c0.614-0.198,1.081-0.139,1.085,0.093c0.114,0.005,15.516,0.104,15.559,0.21
			c0.123,0.229,0.595,0.332,1.03,0.166c0.805-0.226,17.259-1.431,17.548-0.765c0.832,1.917-1.23,10.106-3.087,12.158
			c-1.946,2.15-12.928-0.003-21.455,1.392c-51.433,0.697-34.093-0.237-49.154,1.058c-0.986-0.697-4.809,0.99-7.125-0.246
			c-0.966-0.515-7.846-0.612-9.391-0.149c-0.659,0.198-9.809-0.096-19.24-0.322c-9.43-0.226-19.147-0.419-20.974,0.234
			C106.699,435.544,85.608,435.968,73.47,436.059z"/>
	</g>
</g>
<g>
	<g id="13">
		<path style="opacity:0.7;fill:#FEEF38;" d="M331.103,195.137c-1.672-1.496-13.855-0.138-14.746-0.594
			c-0.725-0.605,0.382-10.969,1.046-12.488c0.234-0.543,0.507-0.622,1.135-0.357c0.994,0.496,13.838-0.154,13.838-0.154
			c0.172,0.327,0.675-0.749,0.771-0.354c0.3,0.92,21.114,0.134,22.889,0.119c1.077-0.009,0.227,0.6,1.494,0.374
			c2.699-0.439,8.586,0.169,10.627-0.359c1.635-0.439,1.988-0.442,3.562-0.03c1.608,0.373,10.145,0.07,11.118-0.633
			c0.237-0.195,0.42-0.119,0.422,0.112c0,0.048,6.02,0.348,6.048,0.529c0.047,0.231,0.23,0.346,0.4,0.19
			c0.312-0.233,6.717-0.967,6.823-0.288c0.323,1.929-0.519,10.088-1.254,12.065c-0.75,2.109-4.944-0.37-8.301,0.842l-15.651-0.218
			l-3.352,0.723c-0.386-0.701-1.859,1.008-2.756-0.248c-0.38-0.499-3.044-0.632-3.632-0.124c-0.51,0.391-14.151-0.92-15.543,0.438
			C343.545,193.465,333.445,194.906,331.103,195.137z"/>
		<path style="opacity:0.7;fill:#FEEF38;" d="M380.341,182.857c1.814,1.099,12.119-2.804,13.005-2.55
			c0.776,0.434,2.277,10.735,2.059,12.351c-0.075,0.577-0.294,0.712-0.905,0.588c-0.985-0.271-12.035,3.084-12.035,3.084
			c-0.228-0.281-0.41,0.871-0.588,0.507c-0.481-0.83-18.45,4.347-19.995,4.738c-0.937,0.237-0.341-0.534-1.392-0.046
			c-2.25,0.999-7.53,1.656-9.185,2.602c-1.322,0.773-1.629,0.85-3.1,0.784c-1.491-0.021-8.867,2.083-9.548,2.973
			c-0.161,0.24-0.338,0.205-0.395-0.02c-0.012-0.047-5.334,0.938-5.402,0.768c-0.096-0.215-0.283-0.287-0.394-0.1
			c-0.217,0.292-5.629,2.364-5.883,1.727c-0.741-1.805-1.947-9.908-1.777-11.984c0.153-2.207,4.401-0.689,7.041-2.578l13.705-3.107
			l2.751-1.413c0.504,0.599,1.382-1.373,2.463-0.344c0.45,0.404,2.806-0.032,3.198-0.649c0.352-0.488,12.563-2.107,13.455-3.721
			C369.885,187.12,378.352,183.578,380.341,182.857z"/>
		<path style="opacity:0.7;fill:#FEEF38;" d="M342.997,209.493c-2.319-1.558-15.915,1.251-16.915,0.938
			c-0.912-0.505-0.898-10.929-0.269-12.538c0.223-0.57,0.538-0.688,1.323-0.511c0.593,0.168,14.379-1.373,16.669-1.541
			c0.222,0.317,0.78-0.784,0.915-0.394c0.202,0.452,12.661,0.106,13.156,0.099c3.293-0.044,13.897-0.013,14.43-0.001
			c1.291,0.031,0.245,0.604,1.771,0.458c3.256-0.313,10.248,0.743,12.702,0.4c1.979-0.277,2.394-0.246,4.236,0.287
			c1.873,0.542,12.008,1.082,13.213,0.508c0.298-0.168,0.507-0.073,0.487,0.158c0,0,0.109,0.027,0.302,0.057
			c0.163,0.026,6.755,0.976,6.769,1.141c0.033,0.236,0.237,0.37,0.452,0.234c0.395-0.197,7.978-0.207,8.04,0.48
			c0.178,1.957-1.61,9.973-2.653,11.866c-1.105,2.005-5.775-0.925-9.826-0.094c-21.234-2.208-17.298-1.937-22.227-1.397
			c-0.399-0.73-2.215,0.827-3.187-0.469c-0.399-0.531-3.499-0.85-4.211-0.387c-0.155,0.083-1.253,0.024-2.843-0.102
			c-1.509-0.12-13.766-1.271-15.167-0.058C357.141,207.36,346.22,208.939,342.997,209.493z"/>
		<path style="opacity:0.7;fill:#FEEF38;" d="M396.5,201.645c2.285,1.391,21.144,0.553,22.66,1.122
			c1.078,0.645-1.136,10.935-2.194,12.416c-0.378,0.529-0.797,0.615-1.723,0.294c-1.257-0.436-12.842-0.517-20.809-0.237
			c-0.256-0.326-1.019,0.752-1.161,0.357c-0.111-0.226-2.151-0.369-5.192-0.385c-12.195-0.065-23.162,0.914-29.198,1.34
			c-1.615,0.114-0.372-0.565-2.264-0.225c-4.018,0.722-12.897,0.779-15.91,1.624c-5.394,1.512-1.989-0.414-14.005,1.419
			c-3.657,0.558-7.183,1.237-7.853,1.711c-0.333,0.236-0.611,0.203-0.642-0.026c-0.094,0.002-9.051,0.811-9.074,0.751
			c-0.103-0.219-0.392-0.291-0.622-0.099c-0.442,0.263-9.823,2.536-10.094,1.895c-0.774-1.833-0.815-10.075-0.025-12.219
			c0.416-1.129,2.297-1.355,4.699-1.531c8.852-0.65,3.278-0.675,11.518-1.733c25.68-3.297,15.016-0.994,25.244-3.438
			c0.648,0.639,2.746-1.253,4.244-0.13c0.614,0.46,4.698,0.23,5.575-0.333c0.988-0.634,21.797-0.398,23.847-1.759
			C376.4,203.298,386.112,202.417,396.5,201.645z"/>
		<path style="opacity:0.7;fill:#FEEF38;" d="M325.413,225.662c-2.8-1.601-23.775-1.018-25.282-1.53
			c-1.216-0.65,1.164-10.934,2.375-12.409c0.428-0.527,0.899-0.59,1.965-0.285c1.684,0.559,23.759,0.726,23.759,0.726
			c0.28,0.338,1.193-0.705,1.34-0.304c0.473,0.938,36.234,1.476,39.28,1.574c1.848,0.06,0.363,0.614,2.547,0.469
			c4.653-0.267,14.729,0.714,18.257,0.317c2.827-0.334,3.433-0.315,6.115,0.197c2.742,0.475,17.41,0.715,19.112,0.074
			c0.417-0.18,0.727-0.092,0.719,0.139c-0.002,0.048,10.316,0.731,10.356,0.913c0.071,0.234,0.379,0.36,0.678,0.215
			c0.547-0.213,11.574-0.539,11.724,0.146c0.465,1.948-1.36,10.045-2.713,11.973c-1.386,2.059-8.469-0.684-14.287,0.313
			l-26.853-1.213l-5.786,0.51c-0.63-0.725-3.237,0.889-4.719-0.423c-0.629-0.523-5.195-0.824-6.228-0.355
			c-0.893,0.359-24.246-1.819-26.699-0.55C346.846,224.782,329.444,225.579,325.413,225.662z"/>
		<path style="opacity:0.7;fill:#FEEF38;" d="M413.72,217.658c2.699,1.278,21.455-1.633,22.867-1.292
			c1.167,0.511,0.23,10.988-0.685,12.587c-0.322,0.571-0.738,0.686-1.73,0.501c-1.576-0.368-21.406,1.922-21.406,1.922
			c-0.29-0.304-0.988,0.833-1.167,0.452c-0.533-0.879-32.689,2.565-35.434,2.806c-1.666,0.146-0.397-0.569-2.34-0.182
			c-4.144,0.783-13.301,0.929-16.421,1.716c-2.498,0.646-3.044,0.694-5.511,0.485c-2.516-0.167-15.707,1.226-17.16,2.052
			c-0.353,0.225-0.641,0.173-0.662-0.058c-0.004-0.048-9.343,0.422-9.4,0.245c-0.091-0.225-0.383-0.315-0.633-0.138
			c-0.466,0.272-10.323,1.823-10.538,1.16c-0.645-1.882,0.05-10.127,1.039-12.192c1.004-2.199,7.68-0.263,12.785-1.9l24.24-1.783
			l5.133-1.15c0.65,0.65,2.801-1.243,4.284-0.105c0.625,0.449,4.759,0.241,5.63-0.34c0.76-0.455,21.971-0.891,24.024-2.423
			C394.588,220.916,410.112,218.188,413.72,217.658z"/>
		<path style="opacity:0.7;fill:#FEEF38;" d="M334.02,243.536c-2.358-1.628-20.301-1.256-21.579-1.782
			c-1.025-0.662,1.234-10.918,2.301-12.38c0.377-0.523,0.781-0.58,1.686-0.265c1.427,0.575,20.294,0.963,20.294,0.963
			c0.232,0.34,1.035-0.693,1.152-0.291c0.383,0.942,30.941,1.837,33.544,1.966c1.579,0.078,0.296,0.617,2.167,0.494
			c3.983-0.221,12.575,0.861,15.6,0.5c2.424-0.306,2.941-0.28,5.223,0.258c2.334,0.502,14.867,0.889,16.336,0.265
			c0.36-0.176,0.623-0.085,0.612,0.146c-0.002,0.048,8.802,0.833,8.833,1.016c0.055,0.235,0.317,0.364,0.575,0.222
			c0.472-0.207,9.905-0.423,10.018,0.263c0.355,1.952-1.382,10.027-2.58,11.941c-1.23,2.044-7.225-0.768-12.22,0.17l-22.928-1.48
			l-4.957,0.452c-0.523-0.731-2.786,0.856-4.025-0.47c-0.526-0.529-4.423-0.876-5.316-0.417c-0.771,0.35-20.686-2.061-22.811-0.817
			C352.361,242.87,337.468,243.494,334.02,243.536z"/>
	</g>
	<g id="12">
		<path style="opacity:0.7;fill:#FEEF38;" d="M342.353,131.353c-1.972-1.481-16.28-0.01-17.328-0.458
			c-0.855-0.598,0.392-10.973,1.165-12.497c0.273-0.545,0.592-0.627,1.332-0.368c1.171,0.487,16.258-0.281,16.258-0.281
			c0.203,0.325,0.788-0.755,0.904-0.361c0.358,0.917,24.808-0.06,26.893-0.091c1.265-0.019,0.27,0.598,1.757,0.36
			c3.169-0.464,10.088,0.09,12.484-0.456c1.919-0.454,2.333-0.46,4.185-0.062c1.891,0.358,11.92-0.023,13.06-0.735
			c0.278-0.197,0.493-0.123,0.496,0.108c0.001,0.048,7.074,0.293,7.108,0.474c0.057,0.231,0.273,0.344,0.471,0.186
			c0.366-0.236,7.887-1.029,8.015-0.351c0.39,1.926-0.559,10.093-1.412,12.076c-0.871,2.116-5.811-0.324-9.749,0.918l-18.39-0.074
			l-3.934,0.754c-0.457-0.697-2.179,1.025-3.24-0.222c-0.449-0.496-3.58-0.604-4.268-0.091c-0.597,0.396-16.631-0.79-18.26,0.581
			C356.963,129.566,345.103,131.101,342.353,131.353z"/>
		<path style="opacity:0.7;fill:#FEEF38;" d="M393.314,120.718c2.768,1.07,21.086-3.252,22.509-3.019
			c1.194,0.421,1.082,10.936,0.302,12.6c-0.274,0.594-0.677,0.739-1.672,0.631c-1.587-0.247-21.016,3.536-21.016,3.536
			c-0.311-0.281-0.912,0.906-1.118,0.539c-0.596-0.836-32.121,5.031-34.817,5.479c-1.636,0.272-0.437-0.537-2.328-0.004
			c-4.036,1.094-13.079,1.932-16.103,2.953c-2.42,0.833-2.956,0.923-5.411,0.9c-2.501,0.025-15.435,2.411-16.807,3.345
			c-0.331,0.251-0.621,0.221-0.659-0.008c-0.008-0.048-9.205,1.128-9.275,0.956c-0.107-0.217-0.403-0.285-0.637-0.09
			c-0.44,0.306-10.065,2.598-10.329,1.953c-0.784-1.828-0.739-10.099,0.079-12.233c0.821-2.268,7.573-0.844,12.493-2.862
			l23.828-3.612l4.986-1.535c0.693,0.599,2.673-1.451,4.228-0.429c0.653,0.401,4.724-0.12,5.54-0.765
			c0.716-0.511,21.654-2.551,23.565-4.234C374.651,125.414,389.788,121.52,393.314,120.718z"/>
		<path style="opacity:0.7;fill:#FEEF38;" d="M321.823,150.207c-2.954-1.342-24.603,0.838-26.362,0.412
			c-1.307-0.56,0.438-10.988,1.576-12.55c0.405-0.556,0.892-0.68,2.009-0.427c1.848,0.419,22.3-0.957,24.59-1.123
			c0.316,0.313,1.173-0.802,1.358-0.415c0.282,0.448,9.666,0.065,19.375-0.513c9.709-0.578,19.743-1.327,21.321-1.422
			c1.915-0.116,0.43,0.566,2.674,0.226c4.776-0.724,15.284-0.686,18.89-1.432c2.89-0.598,3.515-0.622,6.338-0.396
			c2.877,0.23,18.081-0.941,19.762-1.783c0.418-0.21,0.742-0.163,0.757,0.069c0.164,0.006,10.745-0.246,10.795-0.093
			c0.095,0.226,0.427,0.322,0.721,0.149c0.544-0.267,11.913-1.644,12.139-0.979c0.646,1.901-0.481,10.119-1.676,12.179
			c-1.259,2.17-8.815,0.129-14.732,1.685c-32.155,1.615-26.126,1.086-33.804,2.467c-0.721-0.661-3.246,1.173-4.921,0.036
			c-0.693-0.47-5.444-0.307-6.476,0.243c-0.881,0.47-25.26,0.476-27.69,1.944C343.97,147.508,326.003,149.808,321.823,150.207z"/>
		<path style="opacity:0.7;fill:#FEEF38;" d="M412.974,134.934c3.298,0.996,22.146-4.849,23.315-4.775
			c1.289,0.303,2.037,10.788,1.324,12.538c-0.252,0.62-0.669,0.831-1.742,0.801c-1.08-0.03-16.845,3.972-22.341,5.193
			c-0.34-0.266-0.956,0.95-1.188,0.593c-0.333-0.407-17.301,2.718-17.822,2.809c-3.654,0.636-9.877,1.77-19.592,3.173
			c-1.762,0.254-0.442-0.531-2.493-0.057c-4.373,1.01-14.098,1.474-17.392,2.329c-2.648,0.687-3.224,0.758-5.843,0.608
			c-2.277-0.13-16.632,1.354-18.201,2.165c-0.377,0.223-0.682,0.17-0.7-0.061c-0.183-0.005-9.897,0.347-9.952,0.176
			c-0.091-0.226-0.398-0.32-0.667-0.145c-0.499,0.283-10.949,1.67-11.163,1.004c-0.612-1.899,0.343-10.119,1.413-12.177
			c1.127-2.167,8.07-0.135,13.454-1.724c28.187-1.816,25.01-1.767,30.729-3.111c0.692,0.643,2.885-1.282,4.469-0.222
			c0.653,0.437,4.96,0.074,5.866-0.525c0.346-0.229,7.261-0.844,7.686-0.889c2.072-0.217,15.606-1.591,17.184-2.952
			C393.725,140.273,408.69,136.178,412.974,134.934z"/>
		<path style="opacity:0.7;fill:#FEEF38;" d="M340.872,169.648c-2.02-1.3-17.208,0.179-18.475-0.35
			c-0.889-0.611,0.688-10.967,1.492-12.479c0.289-0.542,0.623-0.635,1.369-0.348c1.506,0.579,14.476-0.295,16.677-0.475
			c0.221,0.317,0.784-0.784,0.917-0.395c0.556,1.273,26.693-1.792,27.696-1.898c1.304-0.138,0.329,0.557,1.846,0.19
			c3.22-0.779,10.426-0.918,12.842-1.749c1.934-0.665,2.357-0.695,4.314-0.536c1.991,0.162,12.33-1.434,13.399-2.331
			c0.268-0.225,0.494-0.186,0.526,0.044c0.152,0.001,7.359-0.594,7.403-0.46c0.088,0.222,0.325,0.305,0.51,0.122
			c0.348-0.276,8.017-2.083,8.242-1.43c0.641,1.861,0.717,10.078,0.104,12.166c-0.65,2.214-6.078,0.472-10.019,2.226
			c-23.407,2.808-17.521,1.74-23.224,3.435c-0.552-0.645-2.155,1.254-3.415,0.141c-0.514-0.454-3.799-0.206-4.482,0.364
			c-0.287,0.24-4.676,0.454-9.187,0.773c-4.511,0.319-9.161,0.69-9.973,1.443C356.699,167.249,346.615,168.915,340.872,169.648z"/>
	</g>
	<g id="14">
		<path style="opacity:0.7;fill:#FEEF38;" d="M335.125,274.321c-3.017-1.461-18.644,3.209-19.644,3.073
			c-1.109-0.376-2.101-10.68-1.476-12.475c0.211-0.605,0.579-0.774,1.527-0.721c0.381,0.057,1.79-0.259,3.697-0.627
			c4.262-0.821,7.637-1.61,15.973-2.965c0.283,0.293,0.876-0.869,1.06-0.494c0.067,0.107,0.588,0.121,1.455,0.084
			c3.082-0.132,6.327-0.489,8.465-0.638c7.316-0.509,15.516-1.159,22.875-1.169c1.543-0.002,0.316,0.588,2.133,0.396
			c4.593-0.485,12.68,0.561,15.217,0.255c2.371-0.286,2.884-0.271,5.092,0.362c2.265,0.514,14.446,1.595,15.937,1.258
			c0.368-0.14,0.617-0.025,0.583,0.204c0.25,0.07,8.478,1.738,8.484,2.001c0.022,0.24,0.258,0.4,0.528,0.293
			c0.49-0.241,9.68,1.097,9.67,1.789c-0.029,1.972-3.169,9.623-4.576,11.337c-0.747,0.911-2.345,0.45-4.37-0.206
			c-2.021-0.655-4.504-1.395-6.85-1.236c-1.331-0.266-7.897-1.364-10.51-1.697c-11.61-1.479-10.395-1.304-15.219-0.864
			c-0.48-0.734-2.566,0.818-3.734-0.494c-0.477-0.536-4.126-0.79-4.947-0.316c-0.178,0.103-1.47,0.003-3.342-0.059
			c-1-0.034-15.991-0.819-17.857,0.643C351.556,270.826,338.868,273.512,335.125,274.321z"/>
		<path style="opacity:0.7;fill:#FEEF38;" d="M400.338,265.177c2.16,0.929,22.464-1.164,24.811-0.43
			c1.204,0.611-1.183,11.112-2.141,12.473c-0.704,1.001-0.723,0.032-5.774,0.151c-5.528,0.131-11.73,0.682-17.683,1.561
			c-0.304-0.293-0.99,0.87-1.181,0.494c-0.366-0.557-10.302,0.866-10.959,0.96c-9.21,1.324-16.138,2.8-25.185,4.703
			c-1.694,0.356-0.468-0.508-2.426,0.108c-3.862,1.215-13.521,2.668-16.665,3.947c-2.481,1.009-3.033,1.116-5.596,1.307
			c-2.612,0.195-15.982,3.703-17.328,4.818c-0.333,0.276-0.633,0.28-0.69,0.055c-0.154,0.021-9.579,1.973-9.644,1.851
			c-0.129-0.206-0.444-0.246-0.674-0.027c-0.537,0.432-10.467,3.548-10.785,2.933c-0.915-1.77-1.366-10.035-0.697-12.241
			c0.702-2.31,7.819-1.531,12.842-4.036c30.58-7.256,22.54-4.941,30.045-7.717c0.764,0.55,2.738-1.64,4.453-0.746
			c0.706,0.368,4.999-0.433,5.84-1.131c0.362-0.3,6.086-1.276,11.98-2.298c1.491-0.258,11.863-1.949,13.015-2.93
			C379.605,269.442,397.076,265.612,400.338,265.177z"/>
		<path style="opacity:0.7;fill:#FEEF38;" d="M325.323,295.028c-4.486-1.389-25.125,4.973-26.317,4.948
			c-0.712-0.128-1.274-2.814-1.53-5.698c-0.68-7.651,0.435-7.694,2.283-7.765c0,0,15.921-3.587,26.07-5.284
			c0.367,0.277,1.182-0.925,1.417-0.559c0.086,0.104,0.777,0.103,1.924-0.001c10.757-0.977,30.806-3.048,41.6-3.141
			c2.047-0.018,0.433,0.582,2.84,0.354c4.897-0.464,10.817-0.067,16.115-0.033c7.16,0.045,5.625-0.816,10.836,0.166
			c1.957,0.369,19.146,1.389,21.125,0.934c0.471-0.147,0.808-0.036,0.786,0.195c0.249,0.049,11.324,1.57,11.362,1.82
			c0.058,0.241,0.387,0.398,0.728,0.284c0.309-0.062,3.513,0.058,6.647,0.416c3.132,0.358,6.201,0.791,6.245,1.14
			c0.25,1.994-2.715,9.783-4.353,11.545c-0.865,0.931-3.081,0.484-5.899-0.123c-8.341-1.797-5.011-0.626-13.863-1.617
			c-24.559-2.749-26.403-1.887-30.494-1.568c-0.684-0.729-3.447,0.847-5.07-0.395c-0.676-0.518-5.602-0.722-6.694-0.233
			c-1,0.34-25.242-0.714-28.599,1.248C346.857,290.385,326.323,294.836,325.323,295.028z"/>
		<path style="opacity:0.7;fill:#FEEF38;" d="M421.634,282.132c2.474,1.231,20.745-0.279,22.815,0.469
			c1.081,0.633-1.11,10.949-2.12,12.438c-0.363,0.535-0.77,0.615-1.678,0.314c-2.306-0.763-16.543,0.141-20.393,0.464
			c-0.269-0.313-0.963,0.801-1.123,0.414c-0.79-1.491-30.524,2.663-33.857,3.149c-1.589,0.232-0.409-0.533-2.255-0.058
			c-3.92,1.007-12.707,1.707-15.631,2.761c-2.338,0.843-2.854,0.893-5.241,0.921c-2.763,0.032-14.971,2.714-16.204,3.726
			c-0.314,0.258-0.591,0.244-0.639,0.017c-0.115,0.01-8.904,1.452-8.95,1.351c-0.117-0.211-0.408-0.265-0.624-0.058
			c-0.419,0.299-9.58,3.152-9.889,2.534c-0.888-1.78-1.462-10.003-0.821-12.19c0.678-2.316,7.487-1.339,12.166-3.575
			c29.524-5.834,19.27-2.991,28.38-5.898c0.688,0.588,2.626-1.443,4.191-0.432c0.642,0.414,4.668-0.109,5.494-0.735
			c0.986-0.747,21.711-1.955,23.522-3.439C401.447,284.848,407.97,283.902,421.634,282.132z"/>
		<path style="opacity:0.7;fill:#FEEF38;" d="M341.293,310.53c-2.084-1.599-13.67,1.402-14.67,1.061
			c-0.823-0.493-1.313-10.883-0.82-12.496c0.174-0.571,0.449-0.693,1.154-0.527c0.39,0.118,14.207-1.626,14.744-1.68
			c0.203,0.316,0.677-0.788,0.804-0.399c0.094,0.227,1.553,0.229,3.717,0.208c1-0.01,10.559-0.457,20.817-0.011
			c1.154,0.05,0.199,0.578,1.571,0.478c3.433-0.251,8.952,1.072,11.38,0.869c3.796-0.317,1.216,0.368,9.934,1.758
			c2.625,0.419,5.191,0.763,5.788,0.574c0.298-0.124,0.473,0,0.418,0.226c0,0,6.231,2.024,6.206,2.272
			c-0.024,0.236,0.139,0.404,0.361,0.309c0.634-0.198,7.286,1.451,7.157,2.112c-0.374,1.915-4.103,9.249-5.431,10.876
			c-1.402,1.718-4.417-1.954-8.002-1.702c-0.525-0.146-4.171-1.166-4.701-1.293c-11.479-2.737-10.166-2.223-13.772-1.999
			c-0.285-0.768-1.932,0.757-2.686-0.586c-0.303-0.539-2.935-1.003-3.58-0.531c-0.272,0.199-3.76-0.386-7.399-0.712
			c-1.26-0.113-7.219-0.584-8.111,0.303C353.359,308.265,343.769,310.101,341.293,310.53z"/>
		<path style="opacity:0.7;fill:#FEEF38;" d="M396.989,302.453c1.155,1.425,11.203,1.511,12.294,2.608
			c0.445,0.725-3.659,11.109-4.086,11.848c-0.283,0.489-0.465,0.526-0.787,0.171c-0.921-1.012-7.279-1.135-9.13-1.103
			c-0.105-0.332-0.491,0.724-0.546,0.327c-0.202-1.45-14.057,0.249-16.232,0.51c-0.774,0.093-0.229-0.577-1.122-0.252
			c-1.708,0.621-6.296,0.616-7.663,1.365c-1.124,0.615-1.373,0.648-2.587,0.43c-1.193-0.214-7.399,1.175-7.998,2.02
			c-0.137,0.224-0.285,0.175-0.33-0.053c0,0-4.496,0.45-4.541,0.317c-0.074-0.222-0.236-0.307-0.331-0.13
			c-0.176,0.27-4.781,1.904-4.995,1.254c-0.61-1.847-1.548-9.972-1.401-12.016c0.156-2.173,3.725-0.343,6.005-2.008
			c1-0.165,9.389-1.558,11.849-1.862l2.445-1.112c0.395,0.641,1.268-1.189,2.154-0.056c0.36,0.461,2.406,0.285,2.811-0.257
			c0.204-0.272,7.56-0.618,7.905-0.647c0.855-0.072,3.708-0.227,4.205-0.922C386.595,303.792,391.729,302.85,396.989,302.453z"/>
	</g>
	<g id="11">
		<path style="opacity:0.7;fill:#FEEF38;" d="M331.87,83.114c-2.47-1.522-20.581-0.132-21.901-0.564
			c-1.078-0.6,0.581-10.968,1.573-12.495c0.353-0.543,0.764-0.645,1.696-0.365c0.747,0.225,5.909,0.195,10.891,0.082
			c4.982-0.113,9.78-0.241,9.78-0.241c0.253,0.328,1.016-0.744,1.156-0.349c0.219,0.46,8.102,0.537,16.262,0.538
			c8.16,0.002,16.598-0.033,17.924-0.025c1.608,0.01,0.323,0.597,2.221,0.418c4.041-0.381,12.816,0.457,15.878,0.006
			c2.458-0.362,2.979-0.339,5.319,0.114c2.383,0.461,15.141,0.535,16.624-0.102c0.363-0.182,0.632-0.097,0.625,0.135
			c0.172,0.026,8.973,0.7,9.004,0.867c0.06,0.234,0.328,0.359,0.588,0.213c0.476-0.223,10.065-0.55,10.194,0.134
			c0.368,1.95-1.301,10.033-2.472,11.971c-1.235,2.045-7.323-0.68-12.364,0.341c-27.486-1.226-22.022-1.127-28.233-0.395
			c-0.551-0.717-2.772,0.913-4.085-0.351c-0.54-0.521-4.493-0.72-5.39-0.252c-0.99,0.517-20.783-1.424-23.097,0.039
			C350.379,81.558,335.348,82.884,331.87,83.114z"/>
		<path style="opacity:0.7;fill:#FEEF38;" d="M319.489,97.419c-3.144-1.096-23.423,3.434-24.863,3.223
			c-1.31-0.405-0.991-10.944-0.096-12.629c0.318-0.599,0.767-0.77,1.866-0.657c1.331,0.137,14.033-2.1,23.396-3.716
			c0.335,0.281,1.042-0.908,1.259-0.54c0.49,0.647,24.755-3.197,38.845-5.126c1.826-0.25,0.453,0.54,2.581,0.059
			c4.532-1.023,14.61-1.578,18.023-2.499c2.739-0.739,3.335-0.799,6.056-0.713c2.771,0.087,17.269-1.787,18.867-2.631
			c0.387-0.235,0.705-0.19,0.729,0.04c0.178,0,10.291-0.645,10.35-0.481c0.101,0.223,0.422,0.307,0.698,0.124
			c0.51-0.297,11.363-2.018,11.603-1.36c0.686,1.879-0.104,10.128-1.168,12.221c-1.12,2.202-8.406,0.393-13.986,2.153
			c-30.829,2.861-25.278,2.247-32.079,3.903c-0.726-0.624-3.018,1.333-4.681,0.29c-0.688-0.431-5.199-0.007-6.146,0.599
			c-0.404,0.259-6.406,0.74-12.573,1.408c-6.168,0.668-12.503,1.528-13.592,2.351C339.904,92.763,322.132,96.886,319.489,97.419z"/>
		<path style="opacity:0.7;fill:#FEEF38;" d="M320.055,102.278c-2.949-1.613-25.019-0.984-26.609-1.48
			c-1.285-0.646,1.15-10.934,2.413-12.418c0.449-0.527,0.95-0.614,2.07-0.292c1.626,0.468,21.293,0.646,25.058,0.695
			c0.296,0.338,1.256-0.704,1.413-0.303c0.25,0.47,9.805,0.858,19.701,1.173c9.898,0.315,20.134,0.606,21.741,0.665
			c1.951,0.072,0.377,0.61,2.684,0.504c4.913-0.224,15.537,0.96,19.267,0.634c2.991-0.261,3.626-0.216,6.453,0.331
			c2.882,0.557,18.366,1.184,20.184,0.623c0.445-0.165,0.77-0.067,0.756,0.164c0.182,0.03,10.876,1.119,10.911,1.298
			c0.067,0.237,0.385,0.367,0.708,0.242c0.578-0.223,12.243-0.029,12.379,0.663c0.389,1.971-1.879,9.959-3.357,11.838
			c-1.553,1.975-8.787-1.059-14.994-0.287c-32.353-2.411-26.92-2.09-34.245-1.627c-0.65-0.74-3.394,0.797-4.951-0.515
			c-0.645-0.543-5.441-0.899-6.538-0.466c-0.994,0.392-25.316-2.173-28.06-0.855C342.6,101.452,324.293,102.188,320.055,102.278z"/>
	</g>
	<g id="9">
	<path style="opacity:0.7;fill:#FEEF38;" d="M322.455,26.149c-3.476-1.344-25.135,2.548-26.526,2.337
		c-1.38-0.435-0.645-10.967,0.397-12.637c0.369-0.591,0.858-0.759,2.037-0.617c0.746,0.09,19.344-2.182,25.39-2.825
		c0.339,0.3,1.188-0.847,1.394-0.467c0.155,0.224,2.66,0.13,6.384-0.088c18.934-1.108,20.498-1.398,35.833-1.775
		c1.987-0.049,0.419,0.591,2.757,0.356c4.985-0.499,15.839,0.225,19.617-0.186c3.036-0.33,3.689-0.354,6.573,0.156
		c2.051,0.363,18.662,0.99,20.542,0.453c0.453-0.163,0.784-0.063,0.768,0.169c0.219,0.036,11.043,1.201,11.082,1.417
		c0.064,0.238,0.389,0.382,0.716,0.254c0.598-0.234,12.44,0.265,12.559,0.961c0.338,1.979-2.189,9.904-3.718,11.744
		c-1.603,1.928-8.649-1.269-15.027-0.584c-29.459-2.441-28.951-1.786-34.3-1.294c-0.676-0.723-3.368,0.893-4.969-0.347
		c-0.665-0.515-5.489-0.696-6.558-0.202c-0.232,0.091-1.944,0.096-4.423,0.054c-2.499-0.042-21.416-0.447-23.643,0.917
		C344.164,22.847,327.434,25.429,322.455,26.149z"/>
	</g>
	<g id="15">
		<path style="opacity:0.7;fill:#FEEF38;" d="M319.839,346.537c-3.555-1.454-26.388,1.32-27.918,1.015
			c-1.412-0.511,0.061-10.992,1.247-12.601c0.42-0.57,0.94-0.711,2.155-0.504c1.075,0.183,8.683-0.391,26.535-1.59
			c0.339,0.314,1.274-0.798,1.47-0.41c0.284,0.43,23.112-0.498,43.967-0.592c2.068-0.009,0.425,0.597,2.862,0.404
			c5.194-0.411,16.48,0.451,20.416,0.057c3.16-0.316,3.837-0.319,6.839,0.197c2.37,0.407,19.414,0.988,21.373,0.419
			c0.469-0.166,0.815-0.069,0.801,0.163c0.309,0.047,1.486,0.159,1.799,0.19c3.637,0.358,4.819,0.451,7.931,0.83
			c1.084,0.132,1.811,0.238,1.82,0.285c0.071,0.237,0.411,0.373,0.75,0.245c0.615-0.232,12.944,0.062,13.086,0.754
			c0.407,1.974-2.003,9.945-3.558,11.812c-1.632,1.959-9.162-1.126-15.765-0.367c-5.656-0.403-10.094-0.712-14.797-0.993
			c-16.847-1.005-14.763-0.786-21.193-0.264c-0.704-0.727-3.541,0.869-5.21-0.392c-0.694-0.524-5.736-0.731-6.877-0.278
			c-0.242,0.096-2.041,0.064-4.64-0.017c-2.435-0.076-22.521-0.85-24.818,0.393C342.973,344.082,325.016,346.026,319.839,346.537z"
			/>
		<path style="opacity:0.7;fill:#FEEF38;" d="M322.667,356.886c-2.997-1.444-24.75,0.298-26.344-0.13
			c-1.299-0.582,0.6-10.982,1.775-12.521c0.415-0.55,0.901-0.638,2.025-0.393c1.78,0.465,24.717-0.589,24.717-0.589
			c0.31,0.322,1.199-0.77,1.375-0.378c0.543,0.91,37.715-0.531,40.885-0.601c1.923-0.043,0.411,0.593,2.672,0.327
			c4.817-0.524,15.337-0.101,18.98-0.693c2.918-0.49,3.548-0.504,6.362-0.142c2.875,0.322,18.122-0.249,19.855-0.983
			c0.423-0.203,0.749-0.133,0.755,0.099c0.001,0.048,10.755,0.159,10.807,0.339c0.086,0.23,0.414,0.339,0.716,0.177
			c0.556-0.243,11.991-1.178,12.184-0.503c0.592,1.919-0.853,10.105-2.151,12.105c-1.325,2.132-8.834-0.214-14.822,1.103
			l-27.958,0.275l-5.981,0.829c-0.695-0.689-3.313,1.066-4.925-0.161c-0.682-0.487-5.442-0.536-6.488-0.01
			c-0.908,0.407-25.284-0.475-27.76,0.927C344.88,354.822,326.849,356.581,322.667,356.886z"/>
		<path style="opacity:0.7;fill:#FEEF38;" d="M321.139,366.381c-1.691-1.055-11.351-1.944-20.25-0.808
			c-0.301,0.038-3.486,0.525-3.783,0.482c-1.258-0.426-1.4-10.692-0.154-12.637c0.653-1.02,1.497-0.566,3.851-0.691
			c6.376-0.338,7.199-0.682,23.879,0.32c0.269,0.352,1.257-0.64,1.387-0.232c0.232,0.483,9.359,1.336,18.847,1.818
			c9.486,0.481,19.305,0.553,20.846,0.575c1.871,0.027,0.375,0.604,2.584,0.438c4.699-0.352,14.924,0.299,18.478-0.29
			c6.7-1.112,1.883,0.622,16.263-0.347c1.339-0.09,7.995-0.541,9.207-1.158c0.408-0.208,0.723-0.159,0.737,0.072
			c0.126,0.005,10.482-0.246,10.516-0.144c0.097,0.225,0.422,0.314,0.705,0.135c0.529-0.285,11.564-1.904,11.798-1.284
			c0.71,1.879-0.07,10.12-1.195,12.22c-1.188,2.216-8.763,0.415-14.629,1.995c-31.646,1.781-20.19,0.022-33.711,1.806
			c-0.684-0.698-3.29,1.025-4.895-0.209c-0.665-0.511-5.395-0.64-6.448-0.139c-0.456,0.184-6.736-0.092-13.203-0.393
			c-6.468-0.302-13.126-0.632-14.405-0.016C344.452,366.845,334.22,366.682,321.139,366.381z"/>
		<path style="opacity:0.7;fill:#FEEF38;" d="M323.826,376.711c-2.7-1.525-23.341-0.749-24.973-1.285
			c-1.201-0.643,1.118-10.937,2.293-12.422c0.419-0.529,0.887-0.62,1.927-0.296c1.724,0.538,21.026,0.479,23.319,0.46
			c0.28,0.332,1.159-0.727,1.31-0.328c0.568,1.107,37.565,0.556,38.565,0.553c1.815-0.004,0.376,0.59,2.514,0.376
			c4.55-0.455,14.472,0.154,17.914-0.416c2.757-0.457,3.347-0.446,6.003-0.079c2.707,0.374,17.114-0.122,18.73-0.908
			c0.402-0.195,0.707-0.133,0.712,0.098c0.143,0.012,10.158,0.173,10.196,0.309c0.083,0.229,0.394,0.337,0.677,0.174
			c0.525-0.233,11.292-1.267,11.49-0.595c0.567,1.919-0.689,10.099-1.877,12.122c-1.254,2.136-8.384-0.136-14.055,1.201
			c-31.43,0.334-24.214-0.107-32.216,0.975c-0.653-0.695-3.136,1.01-4.673-0.219c-0.634-0.507-5.157-0.611-6.157-0.1
			c-0.434,0.191-6.43-0.027-12.613-0.157c-6.183-0.131-12.553-0.183-13.747,0.49C344.96,375.418,327.808,376.582,323.826,376.711z"
			/>
		<path style="opacity:0.7;fill:#FEEF38;" d="M323.936,389.984c-1.409-0.754-7.273-0.738-13.161-1.127
			c-5.876-0.388-11.449-1.234-12.45-1.774c-0.573-0.436,0.275-3.058,1.376-5.74c2.86-6.962,3.34-6.844,4.796-6.112
			c1.004,0.505,6.095,1.131,11.133,1.269c4.175,0.114,7.821-0.036,10.432-0.124c0.28,0.323,1.089-0.762,1.247-0.369
			c0.218,0.465,8.9,0.335,17.887,0.035c8.984-0.3,18.267-0.772,19.725-0.826c1.77-0.065,0.386,0.578,2.465,0.299
			c4.425-0.594,14.125-0.283,17.466-0.945c2.677-0.53,3.254-0.543,5.855-0.247c2.653,0.302,16.699-0.561,18.254-1.378
			c0.388-0.204,0.686-0.15,0.698,0.082c0.401,0.024,4.553-0.005,4.96-0.006c0.124,0,4.963-0.034,4.999,0.085
			c0.087,0.228,0.392,0.327,0.665,0.158c0.506-0.252,10.993-1.498,11.201-0.834c0.596,1.906-0.452,10.111-1.565,12.157
			c-1.173,2.158-8.17,0.035-13.662,1.495c-30.803,1.086-23.605,0.484-31.346,1.786c-0.656-0.678-3.023,1.096-4.557-0.086
			c-0.633-0.488-5.035-0.447-5.998,0.078c-0.829,0.452-23.378-0.212-25.654,1.18C344.542,387.928,327.976,389.768,323.936,389.984z"
			/>
	</g>
	<g id="10">
		<path style="opacity:0.7;fill:#FEEF38;" d="M336.479,50.01c-2.32-1.518-18.041,0.391-19.078,0.009
			c-0.965-0.567,0.066-10.976,0.882-12.533c0.29-0.554,0.643-0.649,1.479-0.417c1.001,0.336,13.419-0.425,18.191-0.676
			c0.23,0.323,0.878-0.762,1.01-0.369c0.277,0.619,24.869,0.137,30.113,0.214c1.416,0.021,0.282,0.599,1.954,0.424
			c3.562-0.372,11.279,0.524,13.981,0.115c2.172-0.329,2.633-0.317,4.682,0.179c1.806,0.438,13.296,0.823,14.643,0.218
			c0.326-0.173,0.56-0.081,0.546,0.15c0.211,0.042,1.014,0.137,1.23,0.163c0.172,0.021,6.643,0.773,6.664,0.945
			c0.043,0.236,0.273,0.368,0.509,0.23c0.428-0.221,8.886-0.226,8.965,0.462c0.226,1.958-1.645,9.977-2.756,11.872
			c-1.175,2.003-6.288-0.913-10.781-0.034c-22.622-1.839-20.159-1.456-24.567-0.919c-0.468-0.724-2.426,0.884-3.551-0.39
			c-0.462-0.523-3.906-0.76-4.69-0.292c-0.334,0.199-4.903-0.18-9.621-0.382c-4.718-0.202-9.585-0.218-10.491,0.446
			C352.262,48.096,338.399,49.845,336.479,50.01z"/>
		<path style="opacity:0.7;fill:#FEEF38;" d="M331.94,58.438c-2.464-1.505-20.649-0.424-21.968-0.922
			c-1.063-0.624,0.861-10.953,1.878-12.456c0.363-0.536,0.767-0.609,1.692-0.327c1.475,0.536,18.63,0.177,20.521,0.131
			c0.249,0.329,1.012-0.74,1.149-0.343c0.478,1.028,32.944,0.234,33.944,0.226c1.597-0.013,0.334,0.588,2.215,0.365
			c4.001-0.475,12.738,0.106,15.763-0.465c2.425-0.457,2.943-0.449,5.283-0.083c2.383,0.372,15.065-0.101,16.481-0.875
			c0.354-0.194,0.621-0.131,0.627,0.101c0.149,0.014,8.938,0.209,8.973,0.352c0.074,0.23,0.347,0.338,0.596,0.177
			c0.461-0.234,9.934-1.2,10.109-0.528c0.501,1.921-0.595,10.095-1.636,12.109c-1.101,2.129-7.373-0.189-12.356,1.123
			c-27.378,0.227-21.245-0.176-28.316,0.919c-0.577-0.694-2.749,1.014-4.108-0.212c-0.559-0.504-4.527-0.583-5.412-0.085
			c-0.756,0.426-21.08-0.853-23.165,0.481C350.505,56.91,335.439,58.254,331.94,58.438z"/>
	</g>
	<g id="16">
		<path style="opacity:0.7;fill:#FEEF38;" d="M319.894,416.507c-2.927-1.487-25.202-0.472-27.025-1.003
			c-1.307-0.631,1.059-10.948,2.31-12.445c0.445-0.533,0.95-0.631,2.079-0.316c1.889,0.526,23.192,0.224,25.216,0.188
			c0.307,0.328,1.242-0.742,1.411-0.345c0.656,1.145,40.699-0.013,41.699-0.031c1.961-0.035,0.415,0.583,2.724,0.331
			c4.912-0.535,15.647-0.109,19.358-0.749c2.973-0.512,3.612-0.512,6.488-0.198c2.933,0.32,18.495-0.48,20.23-1.306
			c0.43-0.205,0.761-0.149,0.771,0.082c0.134,0.007,10.989-0.04,11.026,0.075c0.094,0.227,0.431,0.327,0.734,0.158
			c0.563-0.242,12.183-1.538,12.409-0.872c0.647,1.906-0.567,10.113-1.817,12.166c-1.319,2.165-9.067,0.068-15.175,1.535
			c-34.193,1.038-25.74,0.355-34.818,1.658c-0.717-0.682-3.376,1.07-5.057-0.129c-0.694-0.495-5.586-0.514-6.659,0.016
			c-1.054,0.446-26.069-0.539-28.501,0.777C343.147,414.998,326.622,416.168,319.894,416.507z"/>
		<path style="opacity:0.7;fill:#FEEF38;" d="M322.569,426.597c-3.013-1.432-24.768,0.562-26.367,0.171
			c-1.31-0.565,0.448-10.984,1.603-12.544c0.411-0.554,0.9-0.671,2.027-0.42c1.619,0.361,20.996-0.668,24.805-0.855
			c0.313,0.319,1.198-0.779,1.377-0.389c0.276,0.453,9.74,0.259,19.533-0.038c9.794-0.297,19.919-0.645,21.51-0.687
			c1.93-0.051,0.41,0.584,2.681,0.333c4.836-0.534,15.397-0.035,19.055-0.609c2.934-0.46,3.562-0.456,6.388-0.097
			c2.88,0.366,18.211-0.032,19.941-0.777c0.432-0.186,0.754-0.123,0.756,0.109c0.16,0.014,10.802,0.341,10.843,0.49
			c0.083,0.231,0.411,0.345,0.716,0.188c0.561-0.241,12.048-0.978,12.237-0.301c0.54,1.934-1.058,10.076-2.372,12.066
			c-1.383,2.094-8.839-0.366-14.852,0.866c-32.284-0.04-26.222-0.266-33.978,0.753c-0.691-0.694-3.303,1.019-4.928-0.19
			c-0.673-0.5-5.445-0.562-6.494-0.042c-0.908,0.388-25.31-0.521-27.786,0.906C344.79,424.391,326.749,426.249,322.569,426.597z"/>
		<path style="opacity:0.7;fill:#FEEF38;" d="M326.999,440c-2.389-1.229-23.64-0.986-26.191-2.021
			c-0.611-0.368-0.092-3.071,0.721-5.858c2.097-7.189,2.802-7.148,4.473-6.523c1.092,0.409,11.154,1.224,23.375,0.814
			c0.29,0.326,1.153-0.751,1.314-0.356c0.251,0.47,9.245,0.43,18.65-0.053c9.395-0.483,19.199-1.161,20.729-1.236
			c1.865-0.091,0.415,0.571,2.602,0.252c4.655-0.679,14.88-0.521,18.395-1.224c2.818-0.564,3.425-0.58,6.169-0.32
			c2.797,0.265,17.595-0.717,19.235-1.538c0.409-0.205,0.723-0.154,0.735,0.078c0.159,0.008,10.453-0.1,10.496,0.037
			c0.091,0.227,0.412,0.327,0.7,0.157c0.532-0.258,11.592-1.511,11.807-0.844c0.614,1.908-0.543,10.112-1.722,12.159
			c-1.242,2.156-8.578,0.033-14.348,1.517c-31.286,1.219-25.421,0.764-32.897,2.052c-0.695-0.669-3.164,1.134-4.784-0.023
			c-0.669-0.478-5.283-0.358-6.295,0.171c-0.863,0.451-24.531,0.242-26.934,1.692C349.334,438.024,334.703,439.63,326.999,440z"/>
	</g>
</g>
<g>
	<g id="20">
		<path style="opacity:0.7;fill:#FEEF38;" d="M509.97,167.792c-1.936-1.489-11.994,1.765-12.994,1.361
			c-0.748-0.487-1.602-10.848-1.249-12.453c0.125-0.57,0.359-0.692,0.982-0.529c0.668,0.223,8.266-1.221,12.746-2.003
			c0.198,0.306,0.537-0.815,0.673-0.433c0.212,0.487,20.754-1.441,21.314-1.473c1.003-0.058,0.23,0.584,1.404,0.336
			c2.505-0.529,8.006,0.067,9.906-0.425c1.535-0.398,1.864-0.409,3.324,0.027c1.15,0.343,9.414,0.494,10.404-0.138
			c0.235-0.179,0.4-0.091,0.386,0.141c0,0,5.573,0.795,5.588,0.985c0.018,0.235,0.18,0.362,0.354,0.223
			c0.305-0.243,6.337-0.305,6.358,0.382c0.06,1.948-1.676,9.962-2.529,11.858c-0.906,2.013-4.261-0.85-7.399,0.102
			c-7.402-0.674-8.916-0.728-13.822-0.966l-2.977,0.674c-0.338-0.712-1.629,0.971-2.435-0.264c-0.328-0.502-2.689-0.614-3.215-0.117
			c-0.109,0.103-0.95,0.113-2.166,0.087c-1.458-0.03-10.598-0.345-11.556,0.908C520.643,164.977,512.451,167.175,509.97,167.792z"/>
		<path style="opacity:0.7;fill:#FEEF38;" d="M504.78,188.948c-1.375-0.989-7.524,1.418-9.045,1.973
			c-0.917,0.335-1.585,0.542-1.781,0.485c-0.727-0.404-3.215-10.479-3.155-12.098c0.021-0.574,0.208-0.719,0.786-0.624
			c0.492,0.117,10.476-3.037,11.031-3.185c0.212,0.288,0.379-0.85,0.547-0.483c0.227,0.425,8.501-1.208,8.975-1.29
			c1.887-0.328,5.112-0.94,9.871-1.466c0.891-0.098,0.234,0.566,1.268,0.279c2.212-0.614,7.133-0.166,8.817-0.677
			c2.815-0.855,0.64,0.232,7.788,0.269c2.047,0.011,4.045-0.092,4.482-0.38c0.215-0.174,0.361-0.083,0.341,0.148
			c0,0,4.951,0.898,4.955,1.111c0.004,0.235,0.145,0.37,0.305,0.233c0.287-0.246,5.687-0.077,5.654,0.611
			c-0.092,1.941-2.229,9.854-3.089,11.713c-0.916,1.978-3.534-0.987-6.283-0.097c-2.596-0.426-8.852-0.94-11.692-1.025l-2.514,0.709
			c-0.301-0.713-1.352,1-2.066-0.219c-0.288-0.492-2.312-0.579-2.727-0.045c-0.143,0.163-5.37,0.24-5.587,0.248
			c-1.09,0.044-5.459,0.322-5.973,1.279C513.566,185.463,506.927,188.044,504.78,188.948z"/>
		<path style="opacity:0.7;fill:#FEEF38;" d="M498.456,179.84c-2.489-1.306-16.429,2.611-17.507,2.373
			c-0.976-0.433-1.593-10.855-1.06-12.506c0.189-0.586,0.504-0.728,1.317-0.61c0.802,0.163,11.406-1.98,16.946-2.93
			c0.255,0.296,0.737-0.853,0.908-0.477c0.234,0.415,13.118-1.019,13.592-1.064c2.881-0.274,7.706-0.76,15.074-1.005
			c1.36-0.045,0.285,0.565,1.889,0.369c4.034-0.493,10.415,0.503,13.491,0.214c3.742-0.352,2.473,0.218,7.402,0.962
			c1.002,0.151,10.125,1.522,11.346,1.286c0.345-0.115,0.558,0.017,0.506,0.243c0.312,0.123,7.452,2.277,7.415,2.61
			c-0.012,0.239,0.178,0.419,0.436,0.336c0.223-0.03,2.39,0.339,4.446,1.02c2.053,0.681,4.05,1.411,3.983,1.748
			c-0.192,0.962-1.339,3.219-2.622,5.433c-3.699,6.381-3.796,6.213-7.087,4.56c-1.592-0.8-3.601-1.692-5.592-1.702
			c-6.354-1.956-14.862-3.32-17.664-3.625l-3.951,0.347c-0.194-0.367-0.752-0.185-1.377-0.04c-0.63,0.146-1.31,0.218-1.805-0.428
			c-0.4-0.521-3.525-0.837-4.231-0.336c-0.153,0.096-1.264,0.075-2.872,0.001c-2.049-0.093-13.948-0.596-15.402,0.855
			C512.59,176.398,501.807,179.064,498.456,179.84z"/>
	</g>
	<g id="18">
		<path style="opacity:0.7;fill:#FEEF38;" d="M500.062,78.936c-2.404-1.317-16.751,2.23-17.751,1.955
			c-0.969-0.46-1.267-10.899-0.683-12.534c0.207-0.58,0.528-0.713,1.34-0.572c0.96,0.222,13.182-1.906,17.031-2.53
			c0.25,0.299,0.747-0.843,0.912-0.465c0.24,0.433,6.762-0.3,13.519-1.015c4.227-0.447,10.172-1.073,14.857-1.438
			c1.336-0.104,0.315,0.576,1.876,0.269c3.327-0.654,10.67-0.347,13.186-0.943c2.025-0.48,2.461-0.51,4.428-0.154
			c1.645,0.298,12.596-0.063,13.833-0.742c0.297-0.193,0.524-0.115,0.524,0.117c0.195,0.028,7.482,0.446,7.515,0.638
			c0.053,0.233,0.275,0.348,0.492,0.2c0.386-0.262,8.383-0.711,8.489-0.028c0.302,1.943-1.098,10.051-2.048,12.002
			c-1.005,2.063-5.903-0.573-10.084,0.569c-21.06-0.465-18.748-0.195-23.005,0.691c-0.49-0.688-2.199,1.054-3.343-0.131
			c-0.469-0.486-3.706-0.469-4.401,0.059c-0.296,0.225-4.59,0.193-9.01,0.378c-1.379,0.058-8.745,0.351-9.745,1.321
			C514.451,75.541,501.458,78.668,500.062,78.936z"/>
		<path style="opacity:0.7;fill:#FEEF38;" d="M498.684,67.487c-2.226-1.332-14.508,2.365-15.508,2.101
			c-0.881-0.447-1.734-10.83-1.299-12.466c0.154-0.581,0.432-0.717,1.164-0.587c0.736,0.177,8.637-1.458,15.053-2.69
			c0.233,0.297,0.633-0.845,0.795-0.469c0.229,0.43,6.005-0.348,11.996-1.066c2.758-0.331,6.443-0.854,13.18-1.419
			c1.185-0.099,0.286,0.577,1.67,0.277c2.95-0.639,9.474-0.281,11.708-0.851c1.801-0.459,2.188-0.49,3.933-0.111
			c1.389,0.302,11.177,0.102,12.295-0.557c0.268-0.188,0.468-0.106,0.464,0.125c0,0,6.63,0.576,6.659,0.768
			c0.035,0.234,0.236,0.354,0.432,0.209c0.348-0.257,7.464-0.544,7.537,0.142c0.205,1.947-1.297,10.024-2.19,11.953
			c-0.945,2.044-5.147-0.692-8.855,0.378c-18.551-0.812-17.164-0.293-20.163,0.385c-0.43-0.694-1.924,1.034-2.93-0.162
			c-0.411-0.489-3.257-0.506-3.858,0.024c-0.131,0.099-1.136,0.152-2.594,0.183c-1.604,0.035-12.669,0.123-13.828,1.443
			C511.384,64.117,501.641,66.742,498.684,67.487z"/>
		<path style="opacity:0.7;fill:#FEEF38;" d="M508.095,58.044c-1.991-1.388-11.557,2.387-12.558,2.078
			c-0.764-0.441-2.319-10.716-2.079-12.339c0.085-0.576,0.307-0.712,0.929-0.587c0.645,0.177,6.317-1.288,12.403-2.717
			c0.212,0.295,0.48-0.842,0.636-0.468c0.217,0.427,4.99-0.356,9.945-1.076c4.896-0.711,9.676-1.29,10.912-1.414
			c0.983-0.098,0.252,0.577,1.394,0.279c2.436-0.636,7.861-0.27,9.706-0.834c1.492-0.456,1.814-0.486,3.264-0.103
			c1.115,0.295,9.267,0.136,10.21-0.524c0.224-0.187,0.39-0.105,0.384,0.127c-0.003,0.114,5.486,0.487,5.518,0.791
			c0.025,0.234,0.189,0.356,0.354,0.211c0.292-0.255,6.214-0.513,6.255,0.173c0.114,1.945-1.362,10.01-2.141,11.932
			c-0.827,2.042-4.177-0.71-7.219,0.351c-5.386-0.309-6.496-0.379-13.521-0.461l-2.877,0.792c-0.358-0.694-1.549,1.031-2.386-0.169
			c-0.341-0.488-2.661-0.513-3.14,0.015c-0.105,0.098-0.922,0.149-2.108,0.177c-1.596,0.038-10.333,0.103-11.222,1.411
			C518.301,54.706,510.498,57.297,508.095,58.044z"/>
		<path style="opacity:0.7;fill:#FEEF38;" d="M497.116,89.078c-2.153-1.373-10.257,1.424-16.544,0.46
			c-2.293-0.352-4.011-1.104-4.34-1.37c-0.646-0.677,2.521-5.261,4.445-8.952c1.096-2.102,1.27-3.137,1.89-2.442
			c1,0.968,6.716-0.288,14.832-1.378c0.237,0.305,0.749-0.824,0.902-0.442c0.389,0.764,22.138-1.695,27.684-2.207
			c1.298-0.12,0.317,0.567,1.831,0.233c3.221-0.711,10.367-0.617,12.781-1.343c1.938-0.583,2.357-0.605,4.285-0.362
			c1.962,0.247,12.22-0.876,13.305-1.711c0.274-0.211,0.494-0.161,0.515,0.07c0.149,0.008,7.252-0.247,7.292-0.105
			c0.077,0.225,0.306,0.319,0.495,0.146c0.358-0.257,7.943-1.711,8.137-1.053c0.556,1.888,0.315,10.096-0.377,12.156
			c-0.734,2.185-6.017,0.204-9.971,1.762c-22.211,1.622-17.284,0.909-22.922,2.371c-0.518-0.663-2.149,1.16-3.342,0.009
			c-0.487-0.47-3.716-0.348-4.386,0.212c-0.592,0.429-17.102,0.404-18.66,1.909C511.868,86.059,499.88,88.554,497.116,89.078z"/>
	</g>
	<g id="19">
		<path style="opacity:0.7;fill:#FEEF38;" d="M498.263,124.455c-2.121-1.451-17.364,0.234-18.488-0.198
			c-0.919-0.585,0.284-10.978,1.09-12.514c0.284-0.549,0.624-0.636,1.416-0.388c1.255,0.469,17.337-0.525,17.337-0.525
			c0.221,0.322,0.832-0.767,0.96-0.375c0.393,0.912,26.459-0.433,28.683-0.495c1.349-0.038,0.295,0.594,1.879,0.334
			c3.374-0.512,10.761-0.062,13.31-0.644c2.041-0.482,2.483-0.495,4.463-0.125c2.021,0.33,12.714-0.202,13.92-0.932
			c0.294-0.201,0.524-0.131,0.531,0.101c0.001,0.048,7.549,0.187,7.588,0.367c0.064,0.23,0.295,0.34,0.504,0.179
			c0.387-0.241,8.4-1.147,8.544-0.472c0.439,1.92-0.473,10.101-1.359,12.097c-0.903,2.129-6.202-0.237-10.387,1.064l-19.616,0.203
			l-4.187,0.813c-0.496-0.691-2.311,1.058-3.458-0.174c-0.485-0.489-3.826-0.55-4.553-0.027c-0.632,0.405-17.748-0.54-19.469,0.855
			C513.824,122.449,501.194,124.161,498.263,124.455z"/>
		<path style="opacity:0.7;fill:#FEEF38;" d="M507.695,132.732c-1.635-1.48-13.419-0.006-14.286-0.453
			c-0.708-0.598,0.256-10.972,0.884-12.497c0.221-0.545,0.484-0.627,1.096-0.368c0.968,0.487,13.4-0.285,13.4-0.285
			c0.17,0.325,0.646-0.755,0.743-0.361c0.3,0.917,20.448-0.067,22.167-0.098c1.043-0.019,0.226,0.598,1.451,0.36
			c2.609-0.465,8.316,0.087,10.288-0.46c1.579-0.454,1.921-0.46,3.449-0.063c1.561,0.358,9.825-0.026,10.76-0.739
			c0.228-0.197,0.406-0.123,0.41,0.108c0.001,0.048,5.833,0.291,5.862,0.472c0.048,0.231,0.227,0.344,0.389,0.186
			c0.3-0.236,6.495-1.031,6.604-0.353c0.333,1.926-0.399,10.092-1.09,12.076c-0.705,2.116-4.792-0.323-8.03,0.921l-15.159-0.069
			l-3.238,0.755c-0.381-0.697-1.789,1.026-2.672-0.221c-0.373-0.495-2.954-0.602-3.518-0.09c-0.49,0.396-13.714-0.786-15.048,0.586
			C519.727,130.941,509.961,132.478,507.695,132.732z"/>
		<path style="opacity:0.7;fill:#FEEF38;" d="M509.888,115.335c-1.541-1.443-12.32,0.292-13.128-0.136
			c-0.667-0.582-0.065-10.973,0.47-12.512c0.188-0.55,0.428-0.638,0.996-0.392c0.902,0.465,12.293-0.583,12.293-0.583
			c0.165,0.321,0.572-0.769,0.672-0.377c0.301,0.91,18.771-0.521,20.347-0.591c0.957-0.042,0.224,0.592,1.342,0.327
			c2.383-0.523,7.637-0.097,9.432-0.688c1.437-0.489,1.751-0.503,3.165-0.14c1.443,0.323,9.019-0.244,9.858-0.977
			c0.204-0.202,0.369-0.132,0.379,0.099c0.002,0.048,5.363,0.161,5.395,0.341c0.051,0.23,0.218,0.338,0.362,0.177
			c0.269-0.242,5.934-1.175,6.053-0.5c0.358,1.918-0.09,10.097-0.671,12.095c-0.589,2.13-4.408-0.216-7.347,1.098l-13.918,0.268
			l-2.952,0.827c-0.369-0.688-1.615,1.065-2.459-0.162c-0.356-0.487-2.729-0.537-3.232-0.012c-0.439,0.407-12.611-0.481-13.798,0.92
			C520.885,113.278,511.962,115.032,509.888,115.335z"/>
		<path style="opacity:0.7;fill:#FEEF38;" d="M499.736,141.835c-1.824-1.344-14.068,1.074-15.01,0.698
			c-0.787-0.539-0.552-10.962-0.008-12.534c0.191-0.561,0.461-0.664,1.121-0.455c1.051,0.407,14.026-1.363,14.026-1.363
			c0.202,0.31,0.62-0.805,0.752-0.42c0.383,0.89,21.431-1.713,23.23-1.883c1.091-0.103,0.282,0.578,1.548,0.242
			c2.7-0.674,8.724-0.583,10.75-1.287c1.622-0.58,1.979-0.614,3.611-0.341c1.663,0.231,10.298-0.817,11.225-1.603
			c0.224-0.215,0.416-0.156,0.438,0.075c0.005,0.048,6.137-0.18,6.181-0.002c0.068,0.226,0.263,0.324,0.422,0.154
			c0.297-0.259,6.731-1.551,6.897-0.884c0.493,1.894,0.337,10.097-0.24,12.13c-0.581,2.166-5.048,0.064-8.349,1.564l-15.896,1.152
			l-3.338,1.014c-0.452-0.665-1.799,1.167-2.817-0.006c-0.428-0.464-3.142-0.363-3.695,0.194
			c-0.484,0.434-14.435,0.321-15.731,1.796C512.215,139.081,502.092,141.4,499.736,141.835z"/>
	</g>
	<g id="17">
	<path style="opacity:0.7;fill:#FEEF38;" d="M497.154,26.446c-1.946-1.502-13.272,1.215-14.272,0.796
		c-0.773-0.523-0.89-10.933-0.397-12.519c0.175-0.564,0.435-0.674,1.089-0.479c0.789,0.291,10.545-1.04,13.769-1.441
		c0.196,0.313,0.617-0.796,0.743-0.41c0.238,0.573,22.267-0.936,22.887-0.96c1.076-0.043,0.237,0.588,1.501,0.352
		c2.692-0.503,8.585,0.114,10.625-0.388c1.644-0.404,1.993-0.411,3.563,0.016c1.371,0.372,10.123,0.373,11.142-0.274
		c0.246-0.183,0.426-0.099,0.417,0.133c-0.001,0.024,2.979,0.357,3.002,0.36c1.503,0.181,3.002,0.404,3.012,0.494
		c0.028,0.234,0.205,0.354,0.387,0.214c0.317-0.245,6.768-0.502,6.825,0.184c0.16,1.947-1.314,10.016-2.156,11.94
		c-0.894,2.041-4.713-0.716-8.089,0.31c-17.058-1.1-14.813-0.842-18.412-0.086c-0.37-0.707-1.787,0.973-2.668-0.264
		c-0.359-0.504-2.946-0.623-3.52-0.124c-0.242,0.211-3.675-0.002-7.215-0.03c-3.54-0.027-7.185,0.143-7.828,0.84
		C508.831,23.906,498.511,26.217,497.154,26.446z"/>
	</g>
	<g id="21">
		<path style="opacity:0.7;fill:#FEEF38;" d="M508.447,214.75c-1.445-1.463-11.658,0.128-12.419-0.31
			c-0.625-0.591,0.039-10.973,0.559-12.504c0.183-0.547,0.41-0.632,0.946-0.379c0.849,0.477,11.636-0.42,11.636-0.42
			c0.153,0.323,0.548-0.762,0.64-0.368c0.276,0.914,17.763-0.272,19.256-0.32c0.905-0.03,0.207,0.595,1.266,0.345
			c2.259-0.491,7.226,0.004,8.93-0.563c1.364-0.47,1.661-0.479,2.995-0.098c1.362,0.342,8.535-0.125,9.336-0.846
			c0.195-0.2,0.35-0.128,0.358,0.104c0.002,0.048,5.072,0.232,5.101,0.413c0.046,0.23,0.203,0.341,0.341,0.182
			c0.257-0.239,5.625-1.096,5.731-0.419c0.322,1.922-0.178,10.095-0.745,12.085c-0.577,2.122-4.168-0.275-6.961,1.001l-13.17,0.083
			l-2.8,0.787c-0.343-0.693-1.538,1.043-2.325-0.195c-0.332-0.492-2.577-0.573-3.058-0.055c-0.419,0.401-11.927-0.648-13.063,0.736
			C518.869,212.839,510.411,214.474,508.447,214.75z"/>
		<path style="opacity:0.7;fill:#FEEF38;" d="M496.314,225.501c-2.295-1.492-16.848,0.973-17.848,0.616
			c-0.93-0.532-0.435-10.964,0.27-12.549c0.25-0.563,0.579-0.671,1.378-0.469c0.317,0.099,1.545,0.043,3.211-0.071
			c2.26-0.155,3.345-0.258,13.94-1.174c0.227,0.317,0.806-0.785,0.943-0.396c0.206,0.449,6.757,0.2,13.54-0.018
			c3.392-0.109,14.354-0.354,14.905-0.358c1.338-0.008,0.273,0.596,1.85,0.402c3.361-0.414,10.655,0.417,13.205-0.001
			c2.052-0.336,2.488-0.334,4.423,0.159c1.626,0.415,12.553,0.822,13.835,0.228c0.31-0.172,0.531-0.078,0.514,0.153
			c0.192,0.042,7.424,0.963,7.443,1.156c0.037,0.236,0.25,0.366,0.477,0.234c0.403-0.234,8.402-0.137,8.461,0.552
			c0.169,1.959-1.779,9.953-2.86,11.834c-0.574,0.998-2.043,0.751-3.905,0.359c-1.86-0.392-4.114-0.9-6.193-0.484
			c-21.313-1.955-19.318-1.418-22.993-0.921c-0.439-0.722-2.268,0.897-3.325-0.368c-0.433-0.519-3.663-0.733-4.392-0.255
			c-0.312,0.204-4.591-0.134-9.011-0.269c-1.333-0.041-8.747-0.284-9.813,0.613C510.917,223.173,497.622,225.347,496.314,225.501z"
			/>
	</g>
	<g id="22">
		<path style="opacity:0.7;fill:#FEEF38;" d="M502.106,251.45c-1.392-1.636-12.535-1.111-13.308-1.603
			c-0.619-0.65,1.075-10.918,1.788-12.393c0.254-0.526,0.509-0.588,1.068-0.283c0.785,0.49,11.809,0.805,12.733,0.832
			c0.13,0.339,0.682-0.693,0.738-0.292c0.17,0.798,16.143,1.742,20.997,2.175c0.989,0.088,0.142,0.61,1.328,0.525
			c2.521-0.181,7.843,1.085,9.771,0.788c1.551-0.239,1.865-0.191,3.263,0.377c1.416,0.575,9.262,1.285,10.247,0.727
			c0.244-0.163,0.4-0.064,0.37,0.165c0,0,5.443,1.147,5.447,1.313c0.005,0.236,0.161,0.373,0.337,0.241
			c0.318-0.198,6.264-0.039,6.262,0.647c-0.007,1.951-2.005,9.895-2.946,11.756c-0.998,1.974-4.389-1.039-7.584-0.274
			c-15.954-2.468-13.422-2.191-17.17-1.778c-0.264-0.74-1.776,0.783-2.455-0.548c-0.276-0.54-2.663-0.94-3.261-0.513
			c-0.249,0.178-3.418-0.428-6.702-0.894c-3.284-0.466-6.685-0.793-7.379-0.184C513.513,250.785,504.239,251.385,502.106,251.45z"/>
		<path style="opacity:0.7;fill:#FEEF38;" d="M546.575,243.377c1.539,1.132,14.64-0.089,16.778,1.282
			c0.691,0.672-2.973,11.25-3.435,12.087c-0.516,0.933-0.669,0.1-1.668-0.036c-2.252-0.306-6.752-0.407-11.968,0.336
			c-0.192-0.31-0.581,0.805-0.707,0.42c-0.25-0.565-6.063,0.243-6.672,0.319c-0.999,0.126-2.075,0.249-5.794,1.017
			c-6.027,1.245-5.161,1.216-9.457,2.337c-1.02,0.266-0.368-0.543-1.514-0.01c-1.22,0.567-3.268,1.047-5.218,1.596
			c-7.153,2.015-4.615,2.66-7.943,2.859c-1.651,0.099-9.252,3.502-9.761,4.596c-0.126,0.272-0.318,0.275-0.416,0.065
			c-0.022-0.047-5.394,2.139-5.452,2.063c-0.144-0.187-0.358-0.206-0.43,0.007c-0.244,0.267-5.048,3.984-5.508,3.449
			c-1.282-1.49-4.872-8.815-5.21-10.922c-0.362-2.256,4.946-2.472,7.47-5.037c7.726-3.824,11.628-4.303,18.608-8.075
			c0.603,0.545,1.562-1.529,2.863-0.64c0.525,0.358,3.241-0.364,3.718-0.983c0.31-0.402,9.936-2.348,10.435-2.452
			c0.906-0.19,1.768-0.372,2.528-0.564c1.521-0.385,2.64-0.797,2.944-1.193C533.124,246.525,540.999,244.293,546.575,243.377z"/>
		<path style="opacity:0.7;fill:#FEEF38;" d="M502.474,274.311c-1.02-0.688-5.101-0.479-8.769,0.191
			c-3.698,0.676-6.863,1.933-7.365,1.88c-1-0.378-3.134-10.289-2.609-12.283c0.16-0.61,0.51-0.804,1.427-0.789
			c0,0,7.255-1.65,18.2-2.657c0.23,0.316,0.822-0.79,0.959-0.4c0.392,0.724,25.172-0.602,28.326-0.658
			c1.331-0.024,0.286,0.586,1.851,0.348c3.33-0.507,10.615,0.082,13.135-0.452c2.026-0.43,2.454-0.412,4.404-0.027
			c1.979,0.391,12.538,0.155,13.755-0.513c0.297-0.191,0.522-0.111,0.52,0.12c0.239,0.037,3.48,0.26,3.721,0.278
			c1.863,0.137,3.728,0.296,3.743,0.389c0.053,0.233,0.276,0.353,0.489,0.202c0.39-0.232,8.325-0.756,8.439-0.069
			c0.319,1.941-0.994,10.057-1.936,12.015c-0.997,2.072-6.033-0.54-10.168,0.598c-21.554-0.57-18.384-0.554-23.222,0.298
			c-0.472-0.699-2.251,0.991-3.367-0.238c-0.456-0.502-3.723-0.614-4.438-0.095c-0.31,0.198-4.634,0.006-9.095-0.028
			c-4.46-0.034-9.054,0.088-9.889,0.793C517.437,272.045,505.307,273.91,502.474,274.311z"/>
		<path style="opacity:0.7;fill:#FEEF38;" d="M567.546,260.89c1.848,1.387,13.013-1.379,14.013-0.984
			c0.76,0.517,1.027,10.92,0.563,12.511c-0.165,0.565-0.418,0.678-1.062,0.489c-0.518-0.184-3.848,0.239-7.032,0.688
			c-3.186,0.449-6.238,0.94-6.238,0.94c-0.199-0.307-0.564,0.814-0.699,0.431c-0.397-0.886-20.162,2.03-21.839,2.24
			c-1.023,0.128-0.28-0.562-1.463-0.213c-2.513,0.741-8.187,0.751-10.057,1.516c-1.501,0.615-1.829,0.636-3.375,0.431
			c-1.555-0.206-9.557,1.101-10.418,1.968c-0.196,0.225-0.378,0.173-0.411-0.056c0,0-5.696,0.409-5.737,0.285
			c-0.075-0.223-0.267-0.309-0.401-0.131c-0.307,0.353-6.052,1.905-6.258,1.303c-0.634-1.851-1.276-10.006-0.906-12.081
			c0.394-2.212,4.842-0.432,7.913-2.089c18.439-2.397,12.823-0.959,18.198-2.851c0.452,0.654,1.648-1.201,2.672-0.066
			c0.415,0.46,2.975,0.281,3.493-0.276c0.438-0.47,13.647-0.595,14.827-2.079C555.85,263.821,565.341,261.361,567.546,260.89z"/>
	</g>
	<g id="24">
		<path style="opacity:0.7;fill:#FEEF38;" d="M501.944,355.719c-1.846-1.378-14.504,0.816-15.466,0.423
			c-0.798-0.554-0.313-10.972,0.284-12.534c0.21-0.558,0.49-0.656,1.164-0.435c1.072,0.427,14.467-1.106,14.467-1.106
			c0.201,0.314,0.657-0.794,0.784-0.406c0.374,0.897,22.098-1.32,23.954-1.457c1.126-0.083,0.277,0.583,1.587,0.27
			c2.795-0.624,8.993-0.423,11.095-1.09c1.682-0.55,2.051-0.577,3.725-0.275c1.706,0.262,10.618-0.628,11.59-1.397
			c0.236-0.211,0.432-0.148,0.449,0.083c0.003,0.048,6.32-0.067,6.361,0.112c0.065,0.228,0.264,0.329,0.431,0.162
			c0.312-0.254,6.964-1.428,7.119-0.758c0.463,1.903,0.111,10.103-0.529,12.126c-0.648,2.156-5.197-0.029-8.63,1.411l-16.388,0.86
			l-3.459,0.953c-0.45-0.673-1.879,1.134-2.9-0.057c-0.43-0.472-3.226-0.421-3.807,0.126c-0.508,0.426-14.864,0.056-16.233,1.508
			C514.852,353.193,504.379,355.326,501.944,355.719z"/>
		<path style="opacity:0.7;fill:#FEEF38;" d="M503.367,366.244c-1.931-1.34-15,1.112-16,0.738
			c-0.834-0.538-0.484-10.967,0.111-12.54c0.209-0.562,0.498-0.666,1.199-0.458c1.116,0.405,14.958-1.401,14.958-1.401
			c0.212,0.31,0.668-0.808,0.805-0.423c0.4,0.89,22.852-1.771,24.77-1.945c1.164-0.106,0.295,0.577,1.647,0.238
			c2.884-0.681,9.302-0.606,11.467-1.316c1.733-0.585,2.115-0.619,3.851-0.351c1.77,0.227,10.98-0.845,11.976-1.634
			c0.241-0.216,0.445-0.157,0.466,0.074c0.004,0.048,6.54-0.196,6.586-0.018c0.07,0.226,0.278,0.324,0.448,0.153
			c0.319-0.26,7.187-1.57,7.357-0.903c0.507,1.893,0.262,10.101-0.371,12.137c-0.64,2.169-5.379,0.078-8.911,1.587l-16.949,1.195
			l-3.566,1.023c-0.475-0.664-1.928,1.172-3.002,0.002c-0.451-0.463-3.344-0.355-3.939,0.203c-0.52,0.436-15.383,0.359-16.779,1.838
			C516.69,363.455,505.882,365.802,503.367,366.244z"/>
		<path style="opacity:0.7;fill:#FEEF38;" d="M505.084,375.652c-1.995-1.41-14.839,1.108-15.839,0.725
			c-0.833-0.533-0.573-10.958,0.012-12.538c0.208-0.563,0.501-0.687,1.2-0.466c0.565,0.179,4.31-0.163,7.921-0.567
			c3.611-0.404,7.088-0.81,7.088-0.81c0.21,0.312,0.679-0.8,0.812-0.414c0.321,0.73,17.602-0.903,24.894-1.383
			c1.17-0.077,0.273,0.579,1.642,0.3c2.914-0.595,9.348-0.216,11.548-0.821c1.768-0.486,2.146-0.49,3.876-0.157
			c1.756,0.338,11.043-0.219,12.093-0.923c0.255-0.199,0.456-0.127,0.462,0.105c0,0,6.56,0.276,6.593,0.436
			c0.048,0.232,0.254,0.343,0.437,0.185c0.336-0.248,7.306-1.019,7.426-0.341c0.342,1.929-0.563,10.086-1.33,12.072
			c-0.812,2.103-5.32-0.341-8.919,0.919c-19.766,0.102-16.004-0.04-20.401,0.996c-0.439-0.688-1.943,1.058-2.968-0.141
			c-0.418-0.489-3.283-0.491-3.905,0.027c-0.261,0.218-4.074,0.14-7.996,0.224c-3.923,0.084-7.957,0.333-8.665,1.049
			C518.314,373.052,507.569,375.219,505.084,375.652z"/>
		<path style="opacity:0.7;fill:#FEEF38;" d="M498.132,387.524c-1.69-1.471-14.69-0.446-15.734-0.97
			c-0.748-0.629,0.814-10.949,1.555-12.445c0.264-0.534,0.552-0.605,1.2-0.319c1.101,0.586,13.448,0.187,14.485,0.153
			c0.177,0.328,0.713-0.744,0.81-0.348c0.376,1.147,22.95-0.085,23.95-0.12c1.126-0.04,0.253,0.582,1.574,0.324
			c2.805-0.547,8.995-0.153,11.105-0.803c1.69-0.521,2.052-0.523,3.723-0.218c1.698,0.31,10.628-0.55,11.571-1.373
			c0.238-0.208,0.429-0.152,0.448,0.079c0.001,0.017,0.971,0.004,0.988,0.004c0.139-0.001,5.328-0.102,5.364,0.029
			c0.063,0.228,0.269,0.325,0.433,0.155c0.311-0.243,6.913-1.583,7.091-0.92c0.508,1.893,0.387,10.088-0.201,12.133
			c-0.626,2.174-5.286,0.112-8.756,1.603c-21,1.32-14.632,0.37-20.226,1.794c-0.444-0.679-1.92,1.091-2.953-0.112
			c-0.419-0.488-3.272-0.495-3.88,0.038c-0.265,0.198-4.049,0.111-7.945,0.104c-3.895-0.007-7.904,0.055-8.641,0.751
			C511.677,385.977,502.174,387.162,498.132,387.524z"/>
		<path style="opacity:0.7;fill:#FEEF38;" d="M503.784,346.526c-1.678-1.376-13.177,0.642-14.056,0.214
			c-0.719-0.568-0.199-10.973,0.339-12.523c0.192-0.553,0.443-0.647,1.047-0.413c0.963,0.455,11.836-0.783,12.992-0.92
			c0.183,0.315,0.585-0.789,0.701-0.4c0.371,0.978,20.518-1.356,21.518-1.445c1.011-0.089,0.26,0.571,1.434,0.259
			c2.494-0.663,8.084-0.493,9.952-1.199c1.499-0.566,1.823-0.584,3.341-0.325c1.54,0.262,9.526-0.812,10.366-1.609
			c0.203-0.216,0.382-0.158,0.406,0.073c0,0,5.679-0.179,5.717-0.044c0.063,0.227,0.252,0.322,0.394,0.15
			c0.272-0.255,6.174-1.627,6.351-0.966c0.505,1.888,0.613,10.075,0.144,12.119c-0.499,2.173-4.721,0.137-7.772,1.663
			c-17.582,1.462-13.635,0.805-17.95,2.195c-0.427-0.665-1.656,1.144-2.633-0.021c-0.396-0.473-2.924-0.371-3.451,0.169
			c-0.442,0.454-13.478,0.158-14.696,1.595C515.475,344.065,505.999,346.164,503.784,346.526z"/>
	</g>
	<g id="23">
		<path style="opacity:0.7;fill:#FEEF38;" d="M501.618,311.851c-2.153-1.478-15.306,1.192-16.306,0.82
			c-0.866-0.522-0.696-10.949-0.093-12.54c0.214-0.565,0.513-0.676,1.25-0.483c0.906,0.296,13.075-1.167,15.687-1.451
			c0.215,0.314,0.72-0.796,0.854-0.408c0.2,0.446,6.196,0.107,12.405-0.219c2.281-0.12,6.849-0.432,13.645-0.615
			c1.225-0.033,0.261,0.591,1.702,0.367c3.07-0.477,9.768,0.207,12.095-0.266c1.874-0.381,2.273-0.385,4.054,0.064
			c1.525,0.385,11.514,0.533,12.678-0.093c0.281-0.179,0.485-0.091,0.474,0.14c0,0,6.818,0.783,6.837,0.969
			c0.037,0.235,0.233,0.359,0.44,0.221c0.364-0.242,7.698-0.359,7.761,0.328c0.178,1.952-1.511,9.993-2.477,11.901
			c-1.023,2.021-5.37-0.818-9.236,0.141c-19.194-1.401-17.446-1.003-21.031-0.387c-0.414-0.712-2.055,0.946-3.045-0.298
			c-0.405-0.509-3.36-0.658-4.019-0.165c-0.281,0.21-4.198-0.041-8.241-0.099c-4.043-0.058-8.208,0.091-8.956,0.783
			C514.948,309.325,502.861,311.671,501.618,311.851z"/>
		<path style="opacity:0.7;fill:#FEEF38;" d="M492.828,311.17c-0.84-0.686-3.513,0.607-5.613,1.233
			c-0.28,0.083-1.824,0.443-2.068,0.281c-0.301-0.32-1.128-12.009-1.156-12.448c-0.06-0.922,0.068-0.333,0.358-0.261
			c0.162,0.04,0.813-0.146,0.973-0.193c0.773-0.271,1.833-0.843,2.542-1.259c0.189,0.273-0.096-0.776,0.102-0.432
			c0.534,0.931,6.919-3.202,7.858-3.694c0.384-0.201,0.351,0.482,0.71,0.06c0.383-0.449,1.203-0.8,1.978-1.144
			c2.933-1.298,1.536-1.961,3.195-1.758c0.748,0.032,4.071-1.643,4.273-2.429c0.031-0.219,0.136-0.177,0.219,0.039
			c0.014,0.027,0.663-0.14,1.358-0.252c0.696-0.113,1.391-0.203,1.426-0.119c0.088,0.215,0.204,0.298,0.231,0.127
			c0.012-0.301,2.789-1.734,2.99-1.087c0.573,1.845,2.092,9.876,2.358,11.846c0.286,2.123-1.687-0.025-2.425,1.543
			c-1.024,0.265-2.847,0.853-5.238,1.81l-0.811,1.16c-0.441-0.567-0.175,1.196-1.04,0.218c-0.347-0.392-1.306-0.072-1.293,0.486
			c0.005,0.219-1.306,0.604-2.643,1.159c-1.331,0.552-2.673,1.247-2.624,1.977C497.154,307.475,494.575,309.927,492.828,311.17z"/>
		<path style="opacity:0.7;fill:#FEEF38;" d="M514.77,321.304c-2-1.271-12.542,2.647-13.542,2.351
			c-0.803-0.436-2.19-10.747-1.913-12.373c0.098-0.578,0.333-0.715,0.982-0.593c0.806,0.206,9.877-2.173,12.969-2.948
			c0.225,0.288,0.489-0.863,0.657-0.494c0.354,0.637,17.948-3.046,21.647-3.651c1.018-0.167,0.303,0.552,1.47,0.158
			c2.485-0.839,8.154-0.997,10.011-1.779c1.495-0.629,1.824-0.664,3.371-0.473c1.568,0.193,9.617-1.116,10.458-1.902
			c0.203-0.22,0.384-0.164,0.413,0.066c0,0,5.738-0.264,5.78-0.115c0.065,0.227,0.255,0.32,0.398,0.148
			c0.273-0.265,6.224-1.645,6.399-0.98c0.496,1.889,0.585,10.079,0.12,12.121c-0.494,2.17-4.691,0.129-7.697,1.684
			c-17.262,1.723-13.927,1.261-17.646,2.648c-0.454-0.65-1.572,1.214-2.591,0.103c-0.414-0.451-2.905-0.226-3.386,0.347
			c-0.202,0.241-3.519,0.476-6.908,0.893c-3.391,0.417-6.854,1.023-7.382,1.791C525.868,317.487,516.838,320.596,514.77,321.304z"/>
	</g>
	<g id="25">
		<path style="opacity:0.7;fill:#FEEF38;" d="M499.017,412.39c-1.74-1.512-14.541-0.268-15.471-0.732
			c-0.755-0.612,0.508-10.965,1.22-12.478c0.251-0.541,0.538-0.617,1.195-0.346c1.039,0.505,14.526-0.023,14.526-0.023
			c0.177,0.328,0.715-0.743,0.813-0.347c0.306,0.922,22.16,0.332,24.023,0.334c1.13,0.001,0.233,0.602,1.565,0.388
			c2.837-0.414,9.01,0.25,11.158-0.259c1.721-0.423,2.091-0.423,3.739,0.004c1.684,0.388,10.648,0.166,11.676-0.529
			c0.251-0.193,0.442-0.115,0.442,0.116c0,0.048,6.315,0.405,6.343,0.586c0.048,0.232,0.239,0.348,0.418,0.194
			c0.33-0.23,7.059-0.904,7.164-0.224c0.32,1.932-0.644,10.083-1.434,12.052c-0.808,2.102-5.186-0.416-8.721,0.764l-16.425-0.365
			l-3.525,0.692c-0.398-0.705-1.961,0.991-2.891-0.273c-0.394-0.503-3.189-0.66-3.811-0.159c-0.539,0.387-14.844-1.053-16.318,0.292
			C512.093,410.835,501.478,412.181,499.017,412.39z"/>
		<path style="opacity:0.7;fill:#FEEF38;" d="M500.417,422.251c-1.681-1.461-13.667,0.15-14.555-0.287
			c-0.728-0.59,0.143-10.975,0.765-12.507c0.22-0.548,0.487-0.633,1.112-0.381c0.991,0.475,13.644-0.441,13.644-0.441
			c0.176,0.323,0.649-0.763,0.753-0.37c0.316,0.913,20.825-0.305,22.575-0.357c1.062-0.031,0.237,0.595,1.481,0.343
			c2.652-0.495,8.471-0.009,10.472-0.579c1.603-0.472,1.951-0.483,3.512-0.104c1.594,0.339,10.006-0.141,10.951-0.864
			c0.23-0.2,0.412-0.128,0.418,0.104c0.002,0.048,5.944,0.223,5.976,0.403c0.052,0.23,0.235,0.341,0.398,0.182
			c0.303-0.239,6.603-1.107,6.722-0.43c0.36,1.922-0.297,10.097-0.98,12.088c-0.695,2.124-4.884-0.267-8.169,1.014l-15.439,0.108
			l-3.29,0.793c-0.396-0.693-1.812,1.046-2.724-0.19c-0.385-0.491-3.015-0.568-3.584-0.049c-0.495,0.402-13.975-0.626-15.319,0.761
			C512.652,420.32,502.722,421.971,500.417,422.251z"/>
		<path style="opacity:0.7;fill:#FEEF38;" d="M504.04,432.873c-1.541-1.56-13.481-0.884-14.481-1.475
			c-0.666-0.652,1.168-10.915,1.907-12.386c0.264-0.526,0.531-0.587,1.118-0.281c0.972,0.606,12.183,0.622,13.343,0.622
			c0.151,0.334,0.684-0.719,0.759-0.32c0.299,1.135,21.072,0.727,22.072,0.729c1.039,0.002,0.213,0.591,1.44,0.383
			c2.603-0.441,8.294,0.19,10.26-0.377c1.575-0.454,1.907-0.441,3.438-0.071c1.554,0.376,9.815-0.121,10.708-0.9
			c0.227-0.198,0.401-0.134,0.411,0.098c0,0,5.825,0.172,5.853,0.301c0.051,0.23,0.238,0.336,0.394,0.173
			c0.294-0.231,6.422-1.284,6.566-0.613c0.41,1.913,0.046,10.093-0.561,12.109c-0.645,2.145-4.882-0.117-8.131,1.226
			c-19.304,0.519-13.136-0.32-18.722,0.971c-0.386-0.696-1.807,1.016-2.72-0.227c-0.37-0.503-3.002-0.621-3.581-0.112
			c-0.251,0.189-3.74-0.043-7.333-0.194c-3.593-0.151-7.294-0.233-7.998,0.436C516.567,431.78,507.598,432.66,504.04,432.873z"/>
	</g>
</g>
</svg>
